<svg width="65" height="60" viewBox="0 0 65 60" fill="none" xmlns="http://www.w3.org/2000/svg">
<path d="M38.591 7.62406L32.4984 2L26.4058 7.62395L12.1836 20.7521L17.5 25.5C19.5066 23.7962 20.5942 21.5 23.5 21.5C26.4058 21.5 29.2999 21.5 32.4984 21.5C35.6968 21.5 36.5 21.5 42 21.5C44.773 21.5 45.4934 23.7963 47.5 25.5L52.8127 20.7521L38.591 7.62406Z" fill="#7080A5"/>
<path d="M43.6859 2L40.5908 4.85703L54.8129 17.9851L57.8104 20.752L52.001 25.5L46.501 30C46.501 32 46.501 33.5 46.501 34.5L64.0007 20.7521L43.6859 2Z" fill="#7080A5"/>
<path d="M20.316 2L23.4111 4.85703L9.18908 17.9851L6.19159 20.752L12.001 25.5L17.501 30C17.501 32 17.501 33.5 17.501 34.5L0.00122833 20.7521L20.316 2Z" fill="#7080A5"/>
<rect x="19.5" y="24" width="24.9167" height="33" rx="5" fill="#7080A5"/>
</svg>
