<svg width="28" height="28" viewBox="0 0 28 28" fill="none" xmlns="http://www.w3.org/2000/svg">
<path d="M8.39062 5.25H10.2089C11.0205 5.25 11.4264 5.25 11.7319 5.47022C12.0374 5.69044 12.1658 6.07545 12.4225 6.84546L13.0573 8.75" stroke="white" stroke-width="1.5" stroke-linecap="round"/>
<path d="M24.7244 20.4165H13.7005C13.5299 20.4165 13.4447 20.4165 13.38 20.4093C12.6944 20.3325 12.2248 19.6809 12.3688 19.0064C12.3824 18.9427 12.4093 18.8618 12.4633 18.7C12.5232 18.5203 12.5531 18.4305 12.5862 18.3513C12.9248 17.5397 13.691 16.9874 14.568 16.9228C14.6536 16.9165 14.7483 16.9165 14.9377 16.9165H21.2244" stroke="white" stroke-width="1.5" stroke-linecap="round" stroke-linejoin="round"/>
<path d="M20.8494 16.9167H17.3014C15.809 16.9167 15.0627 16.9167 14.4783 16.5313C13.8939 16.146 13.5999 15.4601 13.012 14.0883L12.8151 13.6288C11.8707 11.4251 11.3985 10.3233 11.9172 9.53664C12.4359 8.75 13.6346 8.75 16.0321 8.75H22.1931C24.8753 8.75 26.2164 8.75 26.7222 9.62163C27.2281 10.4933 26.5626 11.6577 25.2319 13.9865L24.9012 14.5654C24.2455 15.7125 23.9178 16.2862 23.3746 16.6014C22.8314 16.9167 22.1707 16.9167 20.8494 16.9167Z" stroke="white" stroke-width="1.5" stroke-linecap="round"/>
<path d="M24.1413 24.4998C24.7856 24.4998 25.3079 23.9775 25.3079 23.3332C25.3079 22.6888 24.7856 22.1665 24.1413 22.1665C23.4969 22.1665 22.9746 22.6888 22.9746 23.3332C22.9746 23.9775 23.4969 24.4998 24.1413 24.4998Z" fill="white"/>
<path d="M14.8073 24.4998C15.4516 24.4998 15.974 23.9775 15.974 23.3332C15.974 22.6888 15.4516 22.1665 14.8073 22.1665C14.163 22.1665 13.6406 22.6888 13.6406 23.3332C13.6406 23.9775 14.163 24.4998 14.8073 24.4998Z" fill="white"/>
<path d="M19 11V15" stroke="white" stroke-width="1.5" stroke-linecap="round"/>
<path d="M17 13L21 13" stroke="white" stroke-width="1.5" stroke-linecap="round"/>
</svg>
