<svg width="61" height="60" viewBox="0 0 61 60" fill="none" xmlns="http://www.w3.org/2000/svg">
<g clip-path="url(#clip0_82_9545)">
<path d="M31.8425 5.03748C24.9137 4.66498 18.3175 7.09748 13.2925 11.865C8.2675 16.6337 5.5 23.075 5.5 30.0012C5.5 37.8725 9.27625 45.3787 15.6013 50.0787C16.7113 50.905 18.2775 50.67 19.1 49.5637C19.9225 48.455 19.6925 46.8887 18.585 46.065C13.4463 42.2487 10.5 36.3937 10.5 30.0012C10.5 24.46 12.7137 19.3062 16.735 15.4925C20.7537 11.68 26.015 9.75248 31.5812 10.03C41.6475 10.5587 49.9438 18.8575 50.4713 28.9212C50.9375 37.8037 45.405 46.0275 37.0175 48.9175C36.1063 49.23 35.1213 49.0825 34.3225 48.5112C33.4825 47.9125 33 46.9787 33 45.9525V40.8125C35.9037 39.7762 38 37.0012 38 33.7525V28.82C38 28.8175 38 28.8162 38 28.8137V21.3037C38 19.9237 36.88 18.8037 35.5 18.8037C34.12 18.8037 33 19.9237 33 21.3037V25.0025H28V21.3037C28 19.9237 26.88 18.8037 25.5 18.8037C24.12 18.8037 23 19.9237 23 21.3037V32.5537C23 32.5537 23 32.5575 23 32.56V33.7525C23 37 25.0963 39.775 28 40.8125V45.9537C28 48.5787 29.2775 51.0562 31.42 52.5837C32.81 53.5762 34.415 54.0862 36.0437 54.0862C36.9137 54.0862 37.79 53.9412 38.6463 53.645C49.1312 50.0325 56.0462 39.7587 55.4638 28.6612C54.8063 16.0737 44.4312 5.69748 31.8425 5.03748Z" fill="#5B66E0"/>
</g>
<defs>
<clipPath id="clip0_82_9545">
<rect width="60" height="60" fill="white" transform="translate(0.5)"/>
</clipPath>
</defs>
</svg>
