<svg width="61" height="60" viewBox="0 0 61 60" fill="none" xmlns="http://www.w3.org/2000/svg">
<g clip-path="url(#clip0_82_9562)">
<path d="M44.5623 24.375C43.0623 24.375 41.7498 25.6875 41.7498 27.1875V25.3125C41.7498 23.8125 40.4373 22.5 38.9373 22.5C37.4373 22.5 36.1248 23.8125 36.1248 25.3125V23.4375C36.1248 21.9375 34.8123 20.625 33.3123 20.625C31.8123 20.625 30.4998 21.9375 30.4998 23.4375V25.3125C30.4998 23.8125 29.1873 22.5 27.6873 22.5C26.1873 22.5 24.8748 23.8125 24.8748 25.3125V39.375V43.875L20.1873 39.1875C19.0623 38.0625 17.3748 37.875 16.2498 38.8125C14.7498 39.9375 14.5623 42.1875 15.8748 43.5L28.6248 56.25H43.6248C46.0623 50.0625 47.3748 43.5 47.3748 36.75V27.1875C47.3748 25.6875 46.0623 24.375 44.5623 24.375Z" fill="#74BC82"/>
<path d="M58.6247 30.375C57.4997 28.125 57.1247 25.5 57.8747 22.875C58.4372 20.8125 58.6247 18.5625 58.2497 16.3125C57.3122 10.125 52.2497 5.06247 46.0622 3.93747C42.6872 3.37497 39.3122 3.93747 36.4997 5.43747C33.6872 6.93747 30.4997 7.31247 27.4997 6.18747C25.2497 5.43747 22.8122 5.24997 20.1872 5.62497C14.1872 6.93747 9.31221 11.8125 8.18721 17.8125V18C7.24971 23.4375 5.37471 28.875 2.37471 33.75C0.687207 36.75 -0.0627934 40.3125 0.687207 43.875C1.81221 49.875 6.49971 54.75 12.4997 55.875C13.4372 56.0625 14.5622 56.25 15.4997 56.25C17.7497 56.25 19.9997 55.6875 21.8747 54.75L13.0622 45.9375C11.7497 44.625 10.9997 42.5625 11.1872 40.6875C11.3747 38.625 12.3122 36.9375 13.9997 35.8125C16.0622 34.3125 18.8747 34.125 21.1247 35.4375V25.5C21.1247 21.9375 24.1247 18.9375 27.6872 18.9375C28.0622 18.9375 28.2497 18.9375 28.6247 18.9375C29.7497 17.8125 31.4372 17.0625 33.3122 17.0625C35.1872 17.0625 36.8747 17.8125 37.9997 18.9375C40.0622 18.5625 42.3122 19.3125 43.6247 20.8125C43.9997 20.8125 44.1872 20.8125 44.5622 20.8125C48.1247 20.8125 51.1247 23.8125 51.1247 27.375V36.9375C51.1247 42.1875 50.3747 47.25 49.0622 52.3125C51.6872 51.75 53.9372 50.4375 55.9997 48.5625C58.9997 45.75 60.6872 41.8125 60.6872 37.6875C60.4997 35.0625 59.9372 32.625 58.6247 30.375Z" fill="#74BC82"/>
</g>
<defs>
<clipPath id="clip0_82_9562">
<rect width="60" height="60" fill="white" transform="translate(0.5)"/>
</clipPath>
</defs>
</svg>
