<svg width="65" height="62" viewBox="0 0 65 62" fill="none" xmlns="http://www.w3.org/2000/svg">
<g clip-path="url(#clip0_82_9580)">
<path d="M17.1377 27.0335C17.1377 33.589 20.7965 39.2506 26.0571 41.8442C24.2927 37.9432 23.3889 32.4709 23.3889 27.0335C23.3889 21.5958 24.2929 16.1236 26.0571 12.2228C20.7963 14.8161 17.1377 20.4778 17.1377 27.0335Z" fill="#C87A7A"/>
<path d="M27.626 27.0335C27.626 37.8017 31.0421 43.3548 32.4997 43.3548C33.957 43.3548 37.3733 37.8017 37.3733 27.0335C37.3733 16.2653 33.957 10.7123 32.4997 10.7123C31.0423 10.7123 27.626 16.2653 27.626 27.0335Z" fill="#C87A7A"/>
<path d="M47.8628 27.0335C47.8628 20.4778 44.204 14.8161 38.9434 12.2228C40.7078 16.1236 41.6116 21.5958 41.6116 27.0335C41.6116 32.4709 40.7076 37.9434 38.9434 41.8442C44.204 39.2506 47.8628 33.589 47.8628 27.0335Z" fill="#C87A7A"/>
<path d="M41.6119 2.02137C41.6119 0.904949 40.6631 0 39.4929 0H25.5076C24.3374 0 23.3887 0.904949 23.3887 2.02137V4.49719H41.6119V2.02137Z" fill="#C87A7A"/>
<path d="M23.3887 52.0455C23.3887 53.1617 24.3374 54.0669 25.5076 54.0669H27.0565C26.9446 54.4875 26.8851 54.9274 26.8851 55.3806V59.9788C26.8851 61.095 27.8338 62 29.0041 62C30.1743 62 31.1232 61.095 31.1232 59.9788V55.3806C31.1232 54.6562 31.7411 54.0669 32.5005 54.0669C33.2599 54.0669 33.8777 54.6562 33.8777 55.3806V59.9788C33.8777 61.095 34.8267 62 35.9969 62C37.1671 62 38.1159 61.095 38.1159 59.9788V55.3806C38.1159 54.9274 38.0564 54.4875 37.9445 54.0669H39.4934C40.6636 54.0669 41.6123 53.1617 41.6123 52.0455V49.5697H23.3891V52.0455H23.3887Z" fill="#C87A7A"/>
<path d="M12.8992 27.0334C12.8992 18.0737 18.4978 10.4473 26.2514 7.73096H22.8482C18.6424 8.68455 14.7774 10.2625 11.5211 12.3979C5.64571 16.2504 2.41016 21.4482 2.41016 27.0332C2.41016 32.6182 5.64571 37.8158 11.5211 41.6685C14.7774 43.8039 18.6424 45.3817 22.8482 46.3353H26.2514C18.4978 43.6196 12.8992 35.9931 12.8992 27.0334Z" fill="#C87A7A"/>
<path d="M53.4783 12.3981C50.222 10.2628 46.357 8.68479 42.1512 7.7312H38.748C46.5017 10.4475 52.1002 18.0739 52.1002 27.0337C52.1002 35.9934 46.5017 43.6198 38.748 46.3359H42.1512C46.357 45.3823 50.222 43.8043 53.4783 41.6692C59.3537 37.8164 62.5893 32.6187 62.5893 27.0339C62.5893 21.4482 59.3537 16.2507 53.4783 12.3981Z" fill="#C87A7A"/>
</g>
<defs>
<clipPath id="clip0_82_9580">
<rect width="65" height="62" fill="white"/>
</clipPath>
</defs>
</svg>
