<svg width="49" height="48" viewBox="0 0 49 48" fill="none" xmlns="http://www.w3.org/2000/svg">
<path d="M24.518 0C14.6272 0 6.60938 8.05875 6.60938 18C6.60938 22.2585 8.47635 26.0033 10.5426 29.25L23.3002 47.367C23.58 47.7645 24.0345 48 24.518 48C25.0015 48 25.456 47.7645 25.7358 47.367L38.4935 29.25C40.4679 26.5785 42.4266 22.2585 42.4266 18C42.4266 8.05875 34.4088 0 24.518 0ZM36.522 29.25H36.5145L24.518 45.75L12.5215 29.25H12.514C10.6903 26.6017 8.10176 22.3493 8.10176 18C8.10176 8.8875 15.4518 1.5 24.518 1.5C33.5842 1.5 40.9342 8.8875 40.9342 18C40.9342 22.3493 38.1592 26.8358 36.522 29.25Z" fill="#22BC3E"/>
<path d="M24.5181 10.5C20.3969 10.5 17.0562 13.8585 17.0562 18C17.0562 22.1415 20.3969 25.5 24.5181 25.5C28.6393 25.5 31.98 22.1415 31.98 18C31.98 13.8585 28.6393 10.5 24.5181 10.5ZM24.5181 24C21.2214 24 18.5485 21.3135 18.5485 18C18.5485 14.6865 21.2214 12 24.5181 12C27.8148 12 30.4876 14.6865 30.4876 18C30.4876 21.3135 27.8148 24 24.5181 24Z" fill="#22BC3E"/>
<path d="M24.518 7.5C18.7484 7.5 14.0713 12.201 14.0713 18C14.0713 23.799 18.7484 28.5 24.518 28.5C30.2876 28.5 34.9647 23.799 34.9647 18C34.9647 12.201 30.2876 7.5 24.518 7.5ZM24.518 27C19.573 27 15.5637 22.9703 15.5637 18C15.5637 13.0297 19.573 9 24.518 9C29.463 9 33.4723 13.0297 33.4723 18C33.4723 22.9703 29.463 27 24.518 27Z" fill="#22BC3E"/>
</svg>
