<svg width="49" height="48" viewBox="0 0 49 48" fill="none" xmlns="http://www.w3.org/2000/svg">
<path d="M23.9857 24.537C24.2745 24.8302 24.7414 24.8302 25.0303 24.537L29.3445 20.1562C29.8793 19.6132 30.4178 18.828 30.4178 18C30.4178 16.3432 29.0948 15 27.4629 15C26.6473 15 25.9086 15.336 25.3738 15.879L24.508 16.752L23.6422 15.879C23.1074 15.336 22.3686 15 21.5531 15C19.9212 15 18.5981 16.3432 18.5981 18C18.5981 18.828 19.1249 19.602 19.6604 20.1442L23.9857 24.537ZM21.5531 16.5C21.9616 16.5 22.3309 16.668 22.5976 16.9395L23.9857 18.3428C24.2745 18.636 24.7414 18.636 25.0303 18.3428L26.4183 16.9395C26.685 16.668 27.0544 16.5 27.4629 16.5C28.2785 16.5 28.9404 17.172 28.9404 18C28.9404 18.4148 28.585 18.807 28.3169 19.0785L24.508 22.9455L20.6991 19.0785C20.4309 18.807 20.0756 18.4148 20.0756 18C20.0756 17.172 20.7375 16.5 21.5531 16.5Z" fill="#22BC3E"/>
<path d="M39.2813 0H9.73358C8.08703 0 6.77881 1.35975 6.77881 3V45.75C6.77881 46.6785 7.34095 47.5125 8.19341 47.8478C9.04586 48.183 10.015 47.9527 10.6318 47.2673L23.7784 33.75C23.7784 33.75 24.0694 33.375 24.5075 33.375C24.9455 33.375 25.238 33.7515 25.238 33.7515L38.3831 47.2673C38.8115 47.7442 39.4099 48.0007 40.0208 48.0007C40.2889 48.0007 40.5607 47.9513 40.8215 47.8485C41.674 47.5125 42.2361 46.6785 42.2361 45.75V3C42.2361 1.389 40.8983 0 39.2813 0ZM40.7587 45.375C40.7587 45.9608 39.893 46.4767 39.2806 45.8558C38.8019 45.369 25.9848 32.367 25.9848 32.367C25.9848 32.367 25.4463 31.6845 24.5075 31.6845C23.5848 31.6845 23.0301 32.4022 23.0301 32.4022C23.0301 32.4022 10.4265 45.2692 9.84291 45.861C9.25934 46.4527 8.2562 45.996 8.2562 45.378C8.2562 44.7668 8.2562 21.3705 8.2562 9H40.7587C40.7587 21.3083 40.7587 44.532 40.7587 45.375ZM40.7587 7.5H8.2562C8.2562 5.6025 8.2562 4.0485 8.2562 3C8.2562 2.172 8.91806 1.5 9.73358 1.5H39.2813C40.0968 1.5 40.7587 2.172 40.7587 3C40.7587 4.0485 40.7587 5.6025 40.7587 7.5Z" fill="#22BC3E"/>
</svg>
