<svg width="49" height="48" viewBox="0 0 49 48" fill="none" xmlns="http://www.w3.org/2000/svg">
<path d="M47.5215 27.879L36.7158 17.0175L36.7248 17.0257C37.027 15.9008 37.2031 14.7218 37.2031 13.5C37.2031 6.045 31.1895 0 23.7716 0C22.5307 0 21.3346 0.183 20.1951 0.4995C19.7101 0.177 19.1385 0 18.5483 0H3.62442C1.97608 0 0.639648 1.34325 0.639648 3V18C0.639648 18.7957 0.954542 19.5585 1.51419 20.121L28.3771 47.121C28.9592 47.7067 29.724 48 30.4874 48C31.2507 48 32.0156 47.7067 32.5976 47.121L47.5215 32.121C48.6878 30.9502 48.6878 29.0498 47.5215 27.879ZM23.7716 1.50075C30.3657 1.50075 35.7107 6.873 35.7107 13.5007C35.7107 14.253 35.6234 15.0667 35.4906 15.7867L34.1698 14.4592L34.1519 14.4405C34.1803 14.1412 34.2183 13.7872 34.2183 13.5007C34.2183 7.7025 29.5412 3.00075 23.7716 3.00075C23.4493 3.00075 23.1329 3.02025 22.818 3.04875C22.2061 3.10425 21.6121 3.21975 21.0338 3.37725C18.4035 4.0935 16.1911 5.814 14.8203 8.10825C14.5629 8.538 14.3278 8.982 14.1331 9.44925C13.6137 10.6965 13.3249 12.0645 13.3249 13.5007C13.3249 13.9635 13.4227 14.8635 13.4227 14.8635C13.4227 14.8635 12.8742 15 12.5787 15C12.3526 15 12.1348 14.97 11.9236 14.922C11.8952 14.916 11.899 14.916 11.9236 14.922C11.8691 14.4548 11.8325 13.983 11.8325 13.5007C11.8325 11.9122 12.1467 10.4002 12.7041 9.0135C12.9041 8.517 13.1346 8.03925 13.3958 7.57875C14.8128 5.076 17.0992 3.1425 19.8429 2.18025C20.3802 1.99125 20.9309 1.8345 21.5002 1.725C22.2352 1.581 22.9941 1.50075 23.7716 1.50075ZM32.6998 12.9818L24.288 4.527C28.8196 4.78725 32.4402 8.42625 32.6998 12.9818ZM15.5635 12C15.5635 12.7432 15.2867 13.4138 14.839 13.9342C14.833 13.7903 14.8173 13.6477 14.8173 13.5007C14.8173 12.525 14.9763 11.5883 15.262 10.7078C15.4501 11.1007 15.5635 11.5358 15.5635 12ZM10.3402 13.5C10.3402 13.6582 10.3566 13.8135 10.3633 13.9703C9.89393 13.443 9.59396 12.7635 9.59396 12C9.59396 10.9523 10.1312 10.0312 10.9416 9.495C10.5506 10.761 10.3402 12.1058 10.3402 13.5ZM46.4663 31.0605L31.5417 46.0605C31.2604 46.344 30.8858 46.5 30.4874 46.5C30.0889 46.5 29.7143 46.344 29.4322 46.0605L2.5693 19.0605C2.29172 18.7808 2.13203 18.3937 2.13203 18V3C2.13203 2.172 2.80137 1.5 3.62442 1.5H17.6364C15.0651 2.83125 12.9839 4.97025 11.7117 7.58625C9.65441 7.992 8.10158 9.813 8.10158 12C8.10158 14.4847 10.1066 16.5 12.5787 16.5C15.0509 16.5 17.0559 14.4847 17.0559 12C17.0559 10.884 16.6492 9.864 15.9791 9.078C17.2835 6.762 19.5773 5.091 22.2852 4.635L46.4663 28.9395C46.7484 29.223 46.9036 29.5995 46.9036 30C46.9036 30.4005 46.7484 30.777 46.4663 31.0605Z" fill="#22BC3E"/>
<path d="M38.0402 28.4105C37.1671 27.533 35.7471 27.5322 34.8741 28.4097L28.9165 34.3977C28.0442 35.2745 28.0121 36.7347 28.8851 37.6122C29.7567 38.4897 31.2043 38.4627 32.0774 37.5852L38.0409 31.5927H38.0394C38.9125 30.7152 38.9125 29.2872 38.0402 28.4105ZM36.9843 30.5322L31.0446 36.5022C30.7529 36.7955 30.2298 36.845 29.9403 36.5517C29.6485 36.2585 29.6866 35.7462 29.9783 35.453L35.9299 29.471C36.2217 29.1777 36.6933 29.1777 36.9851 29.471C37.2761 29.7635 37.2761 30.239 36.9843 30.5322Z" fill="#22BC3E"/>
<path d="M32.0707 25.5927C32.9437 24.7152 32.9437 23.2872 32.0714 22.4105C31.1984 21.533 29.7784 21.5322 28.9053 22.4097L22.9477 28.3977C22.0754 29.2745 22.0433 30.7347 22.9164 31.6122C23.7879 32.4897 25.2356 32.4627 26.1086 31.5852L32.0722 25.5927H32.0707ZM31.0156 24.5322L25.0759 30.5022C24.7841 30.7955 24.261 30.845 23.9715 30.5517C23.6797 30.2585 23.7178 29.7462 24.0096 29.453L29.9612 23.471C30.253 23.1777 30.7246 23.1777 31.0163 23.471C31.3073 23.7635 31.3073 24.239 31.0156 24.5322Z" fill="#22BC3E"/>
<path d="M26.098 19.5898C26.9711 18.7123 26.9711 17.2843 26.0988 16.4075C25.2257 15.53 23.8057 15.5293 22.9327 16.4068L16.9751 22.3948C16.1028 23.2715 16.0707 24.7318 16.9437 25.6093C17.8153 26.4868 19.2629 26.4598 20.136 25.5823L26.0995 19.5898H26.098ZM25.0429 18.5293L19.1032 24.4993C18.8115 24.7925 18.2884 24.842 17.9989 24.5488C17.7071 24.2555 17.7451 23.7433 18.0369 23.45L23.9885 17.468C24.2803 17.1748 24.7519 17.1748 25.0437 17.468C25.3347 17.7605 25.3347 18.236 25.0429 18.5293Z" fill="#22BC3E"/>
</svg>
