<svg width="49" height="48" viewBox="0 0 49 48" fill="none" xmlns="http://www.w3.org/2000/svg">
<path d="M47.1752 0.57975C46.6574 0.198 46.0365 0.00075 45.4097 0.00075C45.109 0.00075 44.8061 0.0465 44.5128 0.1395L31.2582 4.34625L18.7453 0.15375C18.4393 0.051 18.1207 0 17.8013 0C17.4521 0 17.1022 0.0615 16.7701 0.18525L2.59244 5.43525C1.41942 5.8695 0.639648 6.993 0.639648 8.25V45C0.639648 45.9555 1.09259 46.8548 1.86042 47.4202C2.37828 47.8013 2.99762 48 3.62442 48C3.92588 48 4.22958 47.9535 4.52284 47.8605L17.8021 43.6455L31.0813 47.8605C31.3738 47.9535 31.676 48 31.979 48C32.2984 48 32.617 47.949 32.9237 47.8462L46.3552 43.3462C47.5737 42.9375 48.396 41.7915 48.396 40.5V3C48.396 2.0445 47.9431 1.14525 47.1752 0.57975ZM44.9605 1.5705C45.106 1.524 45.2575 1.50075 45.4105 1.50075C45.7276 1.50075 46.041 1.6035 46.294 1.79025C46.6753 2.0715 46.9036 2.52375 46.9036 3V21.8145C46.729 21.7875 46.5477 21.7523 46.3574 21.7155C45.4866 21.5408 44.9404 21.3248 44.283 20.556C43.5069 19.665 43.9584 18.2235 43.1032 17.4705C42.7734 17.187 42.457 17.0925 42.1377 17.0925C41.5228 17.0918 40.8975 17.4435 40.1416 17.4705C38.8984 17.526 38.0433 18.0375 37.0121 18.0375C36.6935 18.0375 36.3577 17.9895 35.9883 17.8627C34.9869 17.5177 34.6034 16.7295 33.6169 16.317C33.299 16.182 33.0087 16.0987 32.7267 16.0365V11.3925C33.5669 11.6932 34.3161 11.9722 35.3943 12.0765C35.9846 12.1357 36.4614 12.3615 36.9389 12.3615C37.2076 12.3615 37.477 12.2895 37.7657 12.0765C38.6604 11.406 39.429 10.185 38.9537 8.9955C38.6447 8.21175 37.9008 8.5065 37.465 7.83675C36.9979 7.09875 37.2195 6.4245 36.8793 5.52825C37.0912 4.87125 37.4523 4.40925 37.6523 3.8895L44.9605 1.5705ZM35.4846 6.063C35.5674 6.28275 35.5936 6.50325 35.6256 6.78225C35.6824 7.26975 35.7607 7.93875 36.2047 8.6415C36.6546 9.33225 37.2464 9.59025 37.6016 9.7275C37.6128 10.1243 37.2285 10.5998 36.8942 10.8577C36.8039 10.845 36.6412 10.8045 36.5173 10.773C36.2532 10.7055 35.9249 10.623 35.5406 10.584C34.6795 10.5008 34.078 10.2855 33.3177 10.0118C33.1341 9.94575 32.9297 9.87525 32.7252 9.8055V5.45325L35.6816 4.515C35.604 4.68675 35.5242 4.8615 35.4585 5.0655C35.354 5.391 35.363 5.7435 35.4846 6.063ZM31.2336 15.9105C30.8284 15.9188 30.412 15.9405 29.9434 15.9405C29.7912 15.9405 29.6345 15.9375 29.4703 15.9307C29.3823 15.927 29.2964 15.9255 29.2114 15.9255C28.3853 15.9255 27.7533 16.0853 27.0467 16.0853C26.6982 16.0853 26.3326 16.0462 25.9147 15.9307C24.9521 15.6622 24.1529 15.7898 23.5425 14.7817C22.8344 13.5855 22.8702 12.1433 23.5425 10.9178C24.247 9.65025 25.3088 9.93825 26.5087 9.7635C26.7295 9.7335 26.9377 9.71925 27.1377 9.71925C28.6279 9.71925 29.6106 10.4895 31.2328 10.9132L31.2336 15.9105ZM24.1022 33.1628C23.7067 34.1302 22.9762 34.332 22.1576 34.332C22.0173 34.332 21.8748 34.326 21.7308 34.317C20.8518 34.2653 20.4563 33.6367 19.6564 33.1628C18.8945 32.7113 18.3684 32.0933 17.8028 31.6065V21.8715C18.3602 22.6283 18.5789 23.3993 19.3557 23.9047C19.6571 24.1012 19.9444 24.1702 20.225 24.1702C20.8973 24.1702 21.5338 23.7735 22.2442 23.7735C22.4598 23.7735 22.6829 23.8103 22.915 23.9055C24.1067 24.405 25.12 24.714 25.5789 26.229C25.8796 27.204 25.8878 27.951 25.5789 28.9192C25.2745 29.898 24.3828 29.8462 24.1022 30.846C23.8522 31.6995 24.4231 32.3587 24.1022 33.1628ZM2.13203 14.367C2.78495 14.3617 3.41698 14.3175 4.25048 14.2748C5.29141 14.217 6.03761 13.6627 6.89125 13.6627C7.17779 13.6627 7.47627 13.725 7.80235 13.8892C8.80001 14.3782 8.98582 15.444 9.8805 16.197C11.2311 17.3355 12.3034 17.166 13.7331 18.1297C14.7987 18.849 15.5374 19.4482 16.3097 20.2192V30.8767C16.2388 30.867 16.1754 30.8475 16.1008 30.8445C15.8232 30.8363 15.571 30.8032 15.3359 30.8032C14.974 30.8032 14.6487 30.8797 14.3233 31.2352C13.7614 31.8435 14.245 32.8747 13.7338 33.5437C13.3622 34.0402 12.9451 34.1947 12.4907 34.1947C12.0489 34.1947 11.5721 34.05 11.0655 33.93C10.0476 33.6968 9.71111 32.6362 8.69779 32.3888C8.31797 32.2973 8.01427 32.2238 7.7061 32.2238C7.4606 32.2238 7.21286 32.2703 6.91961 32.3888C5.66003 32.904 5.45035 34.3305 4.84071 35.8612C4.34226 37.1287 4.83698 38.478 3.95424 39.3232C3.52518 39.735 3.11402 39.8617 2.66929 39.8617C2.49692 39.8617 2.31784 39.8423 2.13278 39.8138L2.13203 14.367ZM3.1088 6.843L16.3097 1.9545V18.1875C15.7859 17.7465 15.2322 17.3348 14.5651 16.8848C13.7577 16.3403 13.0585 16.0928 12.4422 15.8738C11.8184 15.6533 11.3684 15.4935 10.8394 15.0472C10.6155 14.859 10.4394 14.592 10.2342 14.2815C9.85588 13.7085 9.38503 12.9952 8.45602 12.54C7.96279 12.2917 7.4315 12.162 6.89051 12.162C6.21744 12.162 5.65705 12.3548 5.16382 12.525C4.79967 12.6503 4.48478 12.759 4.16765 12.7762L3.56622 12.81C3.01851 12.84 2.57826 12.864 2.13203 12.867V8.25C2.13203 7.6245 2.52379 7.059 3.1088 6.843ZM4.07437 46.4303C3.92812 46.4767 3.77664 46.5 3.62442 46.5C3.30505 46.5 2.99986 46.3995 2.74242 46.2097C2.36037 45.9285 2.13203 45.4762 2.13203 45V41.322C2.30739 41.343 2.48424 41.3633 2.66855 41.3633C3.55726 41.3633 4.31539 41.0513 4.98398 40.41C5.9212 39.5138 5.99657 38.3722 6.05328 37.5397C6.08089 37.119 6.10775 36.7223 6.22863 36.4147C6.36295 36.078 6.48085 35.7405 6.59352 35.415C6.95319 34.3838 7.1457 33.918 7.48149 33.78C7.61431 33.726 7.67326 33.726 7.70535 33.726C7.83966 33.726 8.07546 33.783 8.34782 33.849C8.45751 33.876 8.64331 34.0545 8.83956 34.2435C9.25295 34.6403 9.81857 35.1847 10.7327 35.394L11.0035 35.46C11.449 35.5702 11.9534 35.6955 12.4892 35.6955C13.4704 35.6955 14.3129 35.2635 14.9255 34.446C15.4583 33.7477 15.4822 32.9648 15.4993 32.4465C15.5008 32.406 15.5023 32.3587 15.5038 32.3108C15.5456 32.313 15.5874 32.3167 15.6307 32.3197C15.7672 32.3302 15.9082 32.3392 16.056 32.3438C16.144 32.3475 16.2269 32.364 16.3097 32.3948V42.546L4.07437 46.4303ZM18.252 42.2152L17.8021 42.0728V33.6375C18.117 33.9172 18.4692 34.2008 18.899 34.4557C19.0781 34.5623 19.249 34.6958 19.4288 34.8382C19.9183 35.2245 20.5891 35.7525 21.6435 35.8148C21.8144 35.826 21.9875 35.832 22.1576 35.832C23.794 35.832 24.9126 35.1263 25.4826 33.7335C25.8169 32.8958 25.6789 32.1758 25.5871 31.6995C25.5535 31.527 25.5162 31.3305 25.5349 31.2675L25.5476 31.2285C25.57 31.1985 25.6849 31.1085 25.7677 31.0417C26.1229 30.7612 26.7161 30.291 27.0041 29.3662C27.3966 28.1325 27.3981 27.0585 27.0049 25.7835C26.3758 23.7097 24.9193 23.1098 23.7485 22.6275L23.4896 22.5203C23.0859 22.3545 22.6702 22.2728 22.2442 22.2728C21.6674 22.2728 21.1749 22.4198 20.7809 22.5382C20.5637 22.6035 20.3391 22.6702 20.225 22.6702C20.21 22.6695 20.1966 22.665 20.1668 22.6462C19.9519 22.506 19.8116 22.2773 19.5624 21.8512C19.3542 21.4942 19.0945 21.0518 18.7072 20.6085C18.3834 20.2388 18.0879 19.9132 17.8021 19.6117V1.5C17.9633 1.5 18.1215 1.5255 18.2737 1.57725L30.7858 5.769L31.2336 5.919V9.34275C30.8575 9.22275 30.503 9.09 30.1426 8.94525C29.2599 8.58825 28.3465 8.21925 27.1385 8.21925C26.8668 8.21925 26.587 8.238 26.3072 8.277C26.0886 8.3085 25.8692 8.32275 25.6371 8.33625C24.6611 8.3955 23.1866 8.4855 22.2412 10.1858C21.2898 11.9205 21.2987 13.9223 22.2613 15.549C23.0792 16.9013 24.2238 17.1165 24.982 17.2598C25.1707 17.295 25.3491 17.3288 25.517 17.3752C26.0251 17.5163 26.5258 17.5845 27.0482 17.5845C27.4727 17.5845 27.8496 17.541 28.2137 17.4998C28.5502 17.4615 28.8681 17.4247 29.2129 17.4247C29.277 17.4247 29.3434 17.4263 29.4106 17.4285C29.5964 17.4368 29.7733 17.4398 29.9449 17.4398C30.2553 17.4398 30.5448 17.4292 30.8232 17.4202C30.9642 17.415 31.0985 17.4128 31.235 17.4097V46.335L18.252 42.2152ZM45.8828 41.9227L32.7259 46.3305V17.5868C32.8274 17.6197 32.9282 17.6535 33.0378 17.6993C33.302 17.8095 33.5065 17.9827 33.7893 18.2228C34.2027 18.573 34.7168 19.0095 35.504 19.2803C36.0092 19.4528 36.5009 19.5368 37.0121 19.5368C37.7247 19.5368 38.3403 19.3703 38.8835 19.2233C39.329 19.1025 39.7491 18.9893 40.208 18.9683C40.755 18.9487 41.2273 18.8167 41.6071 18.711C41.7929 18.66 42.0019 18.6015 42.1116 18.5925C42.1698 18.699 42.2235 19.0365 42.2593 19.2623C42.363 19.9065 42.5041 20.79 43.16 21.5438C44.0688 22.6065 44.9471 22.9613 46.0649 23.1855L46.1425 23.2013C46.3895 23.2477 46.6439 23.2897 46.9044 23.3212V40.5C46.9036 41.1465 46.4932 41.7188 45.8828 41.9227Z" fill="#22BC3E"/>
<path d="M41.9084 29.4915C41.4025 29.3355 40.9249 29.1885 40.4086 29.1885C39.922 29.1885 39.4825 29.3212 39.0624 29.5957C38.5908 29.9085 38.455 30.2947 38.4237 30.5625C38.3409 31.2862 38.8744 31.8547 39.4393 32.4562C39.8168 32.8582 40.3869 33.4657 40.2765 33.7545C40.2048 33.9465 39.9884 34.0515 39.546 34.2292C38.996 34.4512 38.1633 34.785 37.9834 35.7825C37.8819 36.336 38.0073 36.8445 38.3453 37.2525C38.8207 37.8247 39.6818 38.1397 40.7727 38.1397C41.8845 38.1397 42.9777 37.8172 43.7037 37.2727C44.9372 36.3217 45.4103 34.9327 45.1096 33.1455C44.8096 31.3222 43.7187 30.0637 41.9084 29.4915ZM42.8031 36.0772C42.3479 36.4192 41.5502 36.6405 40.7727 36.6405C40.0869 36.6405 39.6362 36.4665 39.4915 36.2925C39.4661 36.2617 39.4221 36.2092 39.4504 36.0525C39.4781 35.9032 39.593 35.8267 40.0996 35.6235C40.6332 35.409 41.3637 35.115 41.6719 34.287C42.1144 33.1222 41.195 32.1435 40.5235 31.428C40.3459 31.239 40.0981 30.975 39.975 30.7957C40.3668 30.588 40.8137 30.7237 41.5077 30.9382C42.7329 31.326 43.4291 32.1277 43.6373 33.3937C43.8478 34.6425 43.5881 35.472 42.8031 36.0772Z" fill="#22BC3E"/>
</svg>
