<svg width="22" height="22" viewBox="0 0 22 22" fill="none" xmlns="http://www.w3.org/2000/svg">
<path d="M11.6864 17.1512L11.6865 17.1512C11.8413 17.0738 11.9272 17.0303 11.9889 16.9944C12.0182 16.9774 12.0321 16.9675 12.0371 16.9638C12.0537 16.9462 12.0651 16.9272 12.0722 16.9085C12.0733 16.9022 12.0758 16.8853 12.0779 16.8518C12.0823 16.78 12.0827 16.6835 12.0827 16.5099V12.5239C12.0827 12.509 12.0827 12.494 12.0826 12.4788C12.0823 12.3013 12.0819 12.1024 12.1287 11.9073L12.1287 11.9071C12.1695 11.737 12.237 11.574 12.3288 11.4245M11.6864 17.1512L13.1936 11.4182L12.7321 10.9567L12.7411 10.9477M11.6864 17.1512L10.9531 17.5179C10.9531 17.5179 10.9531 17.5179 10.9531 17.5179C10.5887 17.7 10.3612 17.8129 10.1893 17.88C10.1047 17.913 10.0589 17.9242 10.0403 17.9279C10.0082 17.9195 9.97928 17.9017 9.95724 17.8765C9.95226 17.8582 9.94183 17.8122 9.93358 17.722C9.91676 17.5381 9.91602 17.2841 9.91602 16.8766V12.5171C9.91602 12.5026 9.91605 12.4879 9.91608 12.473M11.6864 17.1512L9.91608 12.473M12.3288 11.4245L12.9679 11.817L12.3282 11.4254C12.3284 11.4251 12.3286 11.4248 12.3288 11.4245ZM12.3288 11.4245C12.4333 11.2541 12.5735 11.1144 12.6974 10.991C12.708 10.9805 12.7185 10.97 12.7289 10.9596C12.7329 10.9556 12.737 10.9516 12.7411 10.9477M12.7411 10.9477L17.3728 6.31594C17.4563 6.23242 17.5016 6.18677 17.5338 6.15136C17.5494 6.13429 17.5565 6.12536 17.5589 6.12212C17.5684 6.10626 17.5743 6.09142 17.5777 6.07863C17.5782 6.07443 17.5794 6.06352 17.5803 6.04232C17.5825 5.99513 17.5827 5.93223 17.5827 5.8159V5.13326C17.5827 4.86449 17.582 4.70771 17.5725 4.5926C17.568 4.53798 17.5626 4.51039 17.5601 4.49986C17.5454 4.47417 17.5245 4.45329 17.4995 4.43883C17.4888 4.43631 17.4612 4.43093 17.407 4.42651C17.2916 4.41709 17.1347 4.4165 16.8656 4.4165H5.13232C4.86325 4.4165 4.70664 4.41709 4.59149 4.4265C4.53742 4.43092 4.50994 4.43628 4.49931 4.4388C4.47396 4.45342 4.45297 4.4744 4.43834 4.49975C4.43582 4.5104 4.43044 4.53795 4.42602 4.59215C4.4166 4.70745 4.41602 4.8642 4.41602 5.13326V5.80908C4.41602 5.92771 4.41619 5.99206 4.4184 6.0403C4.41943 6.06277 4.42065 6.07406 4.4212 6.0782C4.42502 6.09314 4.43107 6.10787 4.43941 6.12191C4.44195 6.12522 4.44908 6.13408 4.46426 6.15072C4.49683 6.1864 4.54221 6.23203 4.62603 6.31586L4.10117 6.84072L4.62603 6.31586L9.26682 10.9567C9.26684 10.9567 9.26686 10.9567 9.26688 10.9567C9.27735 10.9672 9.28796 10.9777 9.29867 10.9884C9.42451 11.1137 9.56528 11.2539 9.67023 11.4253M12.7411 10.9477L9.87024 11.9071C9.8289 11.7348 9.76034 11.5724 9.67023 11.4253M9.67023 11.4253L9.03084 11.8168L9.66994 11.4248C9.67004 11.425 9.67014 11.4252 9.67023 11.4253ZM9.91608 12.473C9.91643 12.2989 9.91683 12.1012 9.87025 11.9071L9.91608 12.473ZM4.44067 6.12399L4.44066 6.12398L4.44067 6.12399ZM17.505 4.44027C17.505 4.44027 17.5047 4.4402 17.5043 4.44005L17.505 4.44027Z" stroke="white" stroke-width="1.5" stroke-linecap="round" stroke-linejoin="round"/>
</svg>
