<svg width="65" height="60" viewBox="0 0 65 60" fill="none" xmlns="http://www.w3.org/2000/svg">
<path d="M48.3927 0H16.6068C13.7419 0 11.4092 2.16516 11.4092 4.80844V55.1895C11.4092 57.8348 13.7421 60 16.6068 60H48.3927C51.2448 60 53.5904 57.8348 53.5904 55.1895V50.4553V47.5549V4.80844C53.5904 2.16516 51.2448 0 48.3927 0ZM50.3378 47.5549V49.5884H14.6503V8.21449H50.3378V47.5549Z" fill="#E19369"/>
<g clip-path="url(#clip0_82_9532)">
<path fill-rule="evenodd" clip-rule="evenodd" d="M33.7022 20.1952L40.7022 22.8202C41.4829 23.1129 42 23.8592 42 24.6929V30.0556C42 33.4645 40.074 36.5809 37.0249 38.1054L33.6708 39.7825C33.2485 39.9936 32.7515 39.9936 32.3292 39.7825L28.9751 38.1054C25.926 36.5809 24 33.4645 24 30.0556V24.6929C24 23.8592 24.5171 23.1129 25.2977 22.8202L32.2978 20.1952C32.7505 20.0254 33.2495 20.0254 33.7022 20.1952ZM33 32C32.4477 32 32 32.4477 32 33C32 33.5523 32.4477 34 33 34C33.5523 34 34 33.5523 34 33C34 32.4477 33.5523 32 33 32ZM33 25C32.4872 25 32.0645 25.386 32.0067 25.8834L32 26V30C32 30.5523 32.4477 31 33 31C33.5128 31 33.9355 30.614 33.9933 30.1166L34 30V26C34 25.4477 33.5523 25 33 25Z" fill="#E19369"/>
</g>
<defs>
<clipPath id="clip0_82_9532">
<rect width="24" height="24" fill="white" transform="translate(21 18)"/>
</clipPath>
</defs>
</svg>
