<svg width="25" height="60" viewBox="0 0 25 60" fill="none" xmlns="http://www.w3.org/2000/svg">
<path fill-rule="evenodd" clip-rule="evenodd" d="M20.6594 20.9798C20.6594 21.34 20.4605 21.6532 20.1666 21.8168C22.9592 24.205 24.6089 27.7048 24.6089 31.4933V53.9153C24.6089 57.2705 21.8792 60.0001 18.524 60.0001H6.47548C3.12023 60.0001 0.390625 57.2704 0.390625 53.9153V31.4933C0.390625 27.7049 2.04036 24.205 4.8329 21.8169C4.53902 21.6534 4.34 21.3401 4.34 20.98V13.732C4.34 13.2032 4.76868 12.7746 5.29744 12.7746H7.69066V7.1494C7.69066 6.62064 8.11934 6.19196 8.64811 6.19196H9.12121L10.073 0.791229C10.1537 0.3337 10.5512 0 11.0159 0H13.9835C14.4482 0 14.8457 0.3337 14.9264 0.791229L15.8782 6.19196H16.3514C16.8803 6.19196 17.3089 6.62064 17.3089 7.1494V12.7744H19.702C20.2308 12.7744 20.6594 13.2031 20.6594 13.7319V20.9798ZM13.9339 6.19196L13.18 1.91488H11.8194L11.0656 6.19196H13.9339Z" fill="#7D7D7D"/>
</svg>
