<svg width="61" height="60" viewBox="0 0 61 60" fill="none" xmlns="http://www.w3.org/2000/svg">
<g clip-path="url(#clip0_82_9574)">
<path d="M57.0825 30.1362H51.6509C50.7015 20.0143 42.622 11.9347 32.5002 10.9852V2.00004C32.5003 0.89543 31.6047 0 30.5002 0C29.3957 0 28.5002 0.89543 28.5002 2.00004V10.9852C18.3784 11.9347 10.2989 20.0143 9.3493 30.1362H3.91801C2.81352 30.1362 1.91797 31.0316 1.91797 32.1362C1.91797 33.2408 2.8134 34.1362 3.91801 34.1362C5.25641 34.1362 56.4429 34.1362 57.0826 34.1362C58.1871 34.1362 59.0826 33.2408 59.0826 32.1362C59.0826 31.0316 58.1871 30.1362 57.0825 30.1362Z" fill="#D6A965"/>
<path d="M30.5 50.5548C29.3955 50.5548 28.5 51.4502 28.5 52.5548V58.0001C28.5 59.1046 29.3954 60.0001 30.5 60.0001C31.6045 60.0001 32.5001 59.1047 32.5001 58.0001V52.5548C32.5001 51.4502 31.6045 50.5548 30.5 50.5548Z" fill="#D6A965"/>
<path d="M14.647 45.1604L10.7967 49.0108C10.0157 49.7918 10.0157 51.0582 10.7967 51.8392C11.5777 52.6203 12.8441 52.6204 13.6252 51.8392L17.4755 47.9889C18.2565 47.2079 18.2565 45.9415 17.4755 45.1605C16.6943 44.3793 15.428 44.3793 14.647 45.1604Z" fill="#D6A965"/>
<path d="M46.3527 45.1603C45.5718 44.3793 44.3053 44.3794 43.5243 45.1603C42.7432 45.9414 42.7432 47.2077 43.5243 47.9888L47.3746 51.8391C48.1555 52.6201 49.4217 52.6201 50.203 51.8391C50.9841 51.058 50.9841 49.7917 50.203 49.0106L46.3527 45.1603Z" fill="#D6A965"/>
<path d="M30.4993 45.6041C35.7712 45.6041 40.3444 42.5592 42.5552 38.136H18.4434C20.6541 42.5592 25.2273 45.6041 30.4993 45.6041Z" fill="#D6A965"/>
</g>
<defs>
<clipPath id="clip0_82_9574">
<rect width="60" height="60" fill="white" transform="translate(0.5)"/>
</clipPath>
</defs>
</svg>
