<svg width="37" height="38" viewBox="0 0 37 38" fill="none" xmlns="http://www.w3.org/2000/svg">
<path d="M19.001 19.7511C18.9846 19.7359 18.9273 19.6829 18.9191 19.6753C14.8451 23.3997 8.28736 23.4073 4.20516 19.6829C4.18877 19.698 4.17233 19.7056 4.16413 19.7208C0.0737388 23.4981 0 37.2223 0 37.2223C0 37.2223 14.8778 37.1692 18.9682 33.3919C18.9846 33.3767 18.9928 33.3617 19.0092 33.3542C14.9762 29.5919 14.968 23.5133 19.001 19.7511Z" fill="black"/>
<path d="M19.0245 19.7511C19.0397 19.7359 19.0929 19.6829 19.1005 19.6753C22.8803 23.3997 28.9567 23.4073 32.7441 19.6829C32.7593 19.698 32.7744 19.7056 32.782 19.7208C36.577 23.4981 36.6607 37.2223 36.6607 37.2223C36.6607 37.2223 22.8423 37.1692 19.0473 33.3994C19.0321 33.3843 19.0245 33.3693 19.0093 33.3617C22.751 29.5919 22.7662 23.5133 19.0245 19.7511Z" fill="#018BD4"/>
<path d="M19.0321 19.5935C19.0473 19.6098 19.1006 19.6669 19.1082 19.6751C22.8895 15.6659 28.9687 15.6578 32.7576 19.6669C32.7728 19.6506 32.788 19.6424 32.7956 19.6261C36.5922 15.5599 36.6607 0.77832 36.6607 0.77832C36.6607 0.77832 22.8439 0.843367 19.0474 4.90956C19.0321 4.92586 19.0245 4.94219 19.0093 4.95034C22.7526 9.00838 22.7678 15.5436 19.0321 19.5935Z" fill="#E83A43"/>
<path d="M18.9928 19.5935C18.9764 19.6098 18.9191 19.6669 18.9109 19.6751C14.8369 15.6659 8.27096 15.6578 4.19695 19.6669C4.18056 19.6506 4.16413 19.6424 4.15593 19.6261C0.0655336 15.5599 0 0.77832 0 0.77832C0 0.77832 14.8778 0.843367 18.9682 4.90956C18.9846 4.92586 18.9928 4.94219 19.0092 4.95034C14.968 9.00838 14.9598 15.5436 18.9928 19.5935Z" fill="#FFCC03"/>
</svg>
