<svg width="61" height="60" viewBox="0 0 61 60" fill="none" xmlns="http://www.w3.org/2000/svg">
<path d="M15.5 55H35.5C36.8261 55 38.0979 54.4732 39.0355 53.5355C39.9732 52.5979 40.5 51.3261 40.5 50V42.5C40.5 41.837 40.2366 41.2011 39.7678 40.7322C39.2989 40.2634 38.663 40 38 40C37.337 40 36.7011 40.2634 36.2322 40.7322C35.7634 41.2011 35.5 41.837 35.5 42.5V50H15.5V22.5C15.5 21.837 15.2366 21.2011 14.7678 20.7322C14.2989 20.2634 13.663 20 13 20C12.337 20 11.7011 20.2634 11.2322 20.7322C10.7634 21.2011 10.5 21.837 10.5 22.5V50C10.5 51.3261 11.0268 52.5979 11.9645 53.5355C12.9021 54.4732 14.1739 55 15.5 55Z" fill="#C16D6D"/>
<path fill-rule="evenodd" clip-rule="evenodd" d="M15.5 10H10.5C9.83696 10 9.20107 10.2634 8.73223 10.7322C8.26339 11.2011 8 11.837 8 12.5V20C8 20.663 8.26339 21.2989 8.73223 21.7678C9.20107 22.2366 9.83696 22.5 10.5 22.5H15.5C16.163 22.5 16.7989 22.2366 17.2678 21.7678C17.7366 21.2989 18 20.663 18 20V12.5C18 11.837 17.7366 11.2011 17.2678 10.7322C16.7989 10.2634 16.163 10 15.5 10ZM23 40V10C23 8.67392 23.5268 7.40215 24.4645 6.46447C25.4021 5.52678 26.6739 5 28 5H48C49.3261 5 50.5979 5.52678 51.5355 6.46447C52.4732 7.40215 53 8.67392 53 10V40C53 41.3261 52.4732 42.5979 51.5355 43.5355C50.5979 44.4732 49.3261 45 48 45H28C26.6739 45 25.4021 44.4732 24.4645 43.5355C23.5268 42.5979 23 41.3261 23 40ZM36.8752 32.2251C37.221 32.4102 37.6081 32.5048 38.0002 32.5001C38.4619 32.4987 38.9142 32.3695 39.3069 32.1268C39.6996 31.8841 40.0175 31.5374 40.2253 31.1251L42.7252 26.1251C42.917 25.7445 43.0083 25.3213 42.9905 24.8955C42.9727 24.4697 42.8463 24.0555 42.6233 23.6923C42.4004 23.3291 42.0883 23.0289 41.7168 22.8203C41.3452 22.6116 40.9264 22.5014 40.5002 22.5001H39.5502L40.2253 21.1251C40.4679 20.5424 40.4811 19.8894 40.2623 19.2973C40.0435 18.7052 39.6087 18.2179 39.0454 17.933C38.4821 17.6482 37.8319 17.587 37.2253 17.7618C36.6187 17.9365 36.1007 18.3342 35.7752 18.8751L33.2752 23.8751C33.0835 24.2557 32.9922 24.679 33.01 25.1048C33.0278 25.5306 33.1542 25.9447 33.3772 26.3079C33.6001 26.6711 33.9122 26.9713 34.2837 27.18C34.6553 27.3886 35.0741 27.4988 35.5002 27.5001H36.4502L35.7752 28.8751C35.4787 29.4655 35.428 30.1493 35.6341 30.7771C35.8402 31.4048 36.2864 31.9254 36.8752 32.2251Z" fill="#C16D6D"/>
</svg>
