<svg width="61" height="60" viewBox="0 0 61 60" fill="none" xmlns="http://www.w3.org/2000/svg">
<path fill-rule="evenodd" clip-rule="evenodd" d="M17.375 30C17.375 23.3879 22.2645 17.9177 28.625 17.0079V18.75C28.625 19.7855 29.4645 20.625 30.5 20.625C31.5355 20.625 32.375 19.7855 32.375 18.75V17.0079C38.7355 17.9177 43.625 23.3879 43.625 30C43.625 36.6123 38.7355 42.0823 32.375 42.992V41.2498C32.375 40.2143 31.5355 39.3748 30.5 39.3748C29.4645 39.3748 28.625 40.2143 28.625 41.2498V42.992C22.2645 42.0823 17.375 36.6123 17.375 30ZM38 30C38 31.3808 36.8808 32.5 35.5 32.5C34.1192 32.5 33 31.3808 33 30C33 28.6193 34.1192 27.5 35.5 27.5C36.8808 27.5 38 28.6193 38 30ZM25.5 32.5C26.8807 32.5 28 31.3808 28 30C28 28.6193 26.8807 27.5 25.5 27.5C24.1193 27.5 23 28.6193 23 30C23 31.3808 24.1193 32.5 25.5 32.5Z" fill="#AE9292"/>
<path fill-rule="evenodd" clip-rule="evenodd" d="M9.16117 8.66117C5.5 12.3223 5.5 18.2149 5.5 30C5.5 41.785 5.5 47.6777 9.16117 51.3387C12.8223 55 18.7149 55 30.5 55C42.285 55 48.1777 55 51.8387 51.3387C55.5 47.6777 55.5 41.785 55.5 30C55.5 18.2149 55.5 12.3223 51.8387 8.66117C48.1777 5 42.285 5 30.5 5C18.7149 5 12.8223 5 9.16117 8.66117ZM30.5 13.125C21.1802 13.125 13.625 20.6802 13.625 30C13.625 39.3197 21.1802 46.875 30.5 46.875C39.8197 46.875 47.375 39.3197 47.375 30C47.375 20.6802 39.8197 13.125 30.5 13.125Z" fill="#AE9292"/>
</svg>
