<svg width="51" height="51" viewBox="0 0 51 51" fill="none" xmlns="http://www.w3.org/2000/svg">
<path d="M49.0502 49.55C48.1134 50.4813 46.8461 51.004 45.5252 51.004C44.2043 51.004 42.937 50.4813 42.0002 49.55L24.0502 31.6C21.6884 32.8155 19.0639 33.4316 16.408 33.3941C13.752 33.3565 11.146 32.6664 8.81952 31.3846C6.49302 30.1029 4.51741 28.2687 3.06666 26.0436C1.61591 23.8185 0.734545 21.2709 0.500185 18.625C0.380286 17.0791 0.46434 15.524 0.750185 14C0.852888 13.5603 1.07274 13.1567 1.38641 12.8319C1.70007 12.5072 2.09583 12.2734 2.53166 12.1555C2.96749 12.0375 3.42713 12.0398 3.86176 12.1621C4.29639 12.2844 4.68979 12.5221 5.00018 12.85L13.0002 21L19.2252 19.75L20.5002 13.5L12.3502 5.50001C12.0355 5.18813 11.8094 4.79824 11.695 4.37025C11.5805 3.94225 11.5819 3.49154 11.6989 3.06424C11.8159 2.63694 12.0443 2.24841 12.3608 1.93841C12.6773 1.62842 13.0705 1.4081 13.5002 1.30001C15.022 0.997442 16.577 0.896576 18.1252 1.00001C20.7641 1.2378 23.3044 2.11922 25.5235 3.56704C27.7425 5.01486 29.5726 6.98486 30.8533 9.3044C32.134 11.6239 32.8262 14.2222 32.8692 16.8715C32.9123 19.5207 32.3048 22.1401 31.1002 24.5L49.0502 42.45C49.5188 42.9148 49.8908 43.4678 50.1446 44.0771C50.3985 44.6864 50.5292 45.3399 50.5292 46C50.5292 46.6601 50.3985 47.3136 50.1446 47.9229C49.8908 48.5322 49.5188 49.0852 49.0502 49.55Z" fill="#89B1F2"/>
</svg>
