<svg width="20" height="20" viewBox="0 0 20 20" fill="none" xmlns="http://www.w3.org/2000/svg">
<path d="M17.32 4.5H3.68C3.03 4.5 2.5 5.03 2.5 5.68V8.2C2.5 8.85 3.03 9.38 3.68 9.38H17.32C17.97 9.38 18.5 8.85 18.5 8.2V5.68C18.5 5.03 17.97 4.5 17.32 4.5ZM17.25 8.12H3.75V5.75H17.25V8.12ZM17.32 10.62H3.68C3.03 10.62 2.5 11.15 2.5 11.8V14.32C2.5 14.97 3.03 15.5 3.68 15.5H17.32C17.97 15.5 18.5 14.97 18.5 14.32V11.8C18.5 11.15 17.97 10.62 17.32 10.62ZM17.25 14.25H3.75V11.87H17.25V14.25Z" fill="#8A8A8A"/>
</svg>
