<svg width="65" height="60" viewBox="0 0 65 60" fill="none" xmlns="http://www.w3.org/2000/svg">
<path d="M48.9501 19.887V19.2593C48.9501 16.836 47.6892 14.6846 45.7402 13.3332V9.62965H51.3575V5.1852H45.7402V4.44445C45.7402 2.00004 43.5737 0 40.9254 0C38.2773 0 36.1106 2.00004 36.1106 4.44445V5.1852H19.2588C13.6744 5.1852 9.10183 9.25664 8.83942 14.3524C4.68437 15.3376 1.60449 18.8244 1.60449 22.9629C1.60449 27.8643 5.92433 31.8518 11.2341 31.8518C16.544 31.8518 20.8638 27.8643 20.8638 22.9629C20.8638 18.8363 17.8013 15.3579 13.6644 14.3612C13.9142 11.7138 16.3271 9.62953 19.2588 9.62953H36.1107V13.3332C34.1617 14.6846 32.9008 16.8359 32.9008 19.2592V19.8868C24.4629 22.8752 18.4564 30.4312 18.4564 39.2591C18.4564 45.7485 21.7332 51.8236 27.2836 55.7407V60H54.5676V55.7409C60.1179 51.8236 63.3947 45.7486 63.3947 39.2593C63.3946 30.4314 57.3881 22.8754 48.9501 19.887ZM48.9501 40.7407H32.9007V36.2962H48.9501V40.7407Z" fill="#70C3C0"/>
</svg>
