<svg width="61" height="60" viewBox="0 0 61 60" fill="none" xmlns="http://www.w3.org/2000/svg">
<path d="M10.5 50H15.5V25C15.5 24.337 15.7634 23.7011 16.2322 23.2322C16.7011 22.7634 17.337 22.5 18 22.5H48V17.5C48 16.837 47.7366 16.2011 47.2678 15.7322C46.7989 15.2634 46.163 15 45.5 15H37.8725C37.2425 9.39 32.525 5 26.75 5C20.975 5 16.2575 9.39 15.6275 15H8C7.33696 15 6.70107 15.2634 6.23223 15.7322C5.76339 16.2011 5.5 16.837 5.5 17.5V45C5.5 46.3261 6.02678 47.5979 6.96447 48.5355C7.90215 49.4732 9.17392 50 10.5 50ZM26.75 10C29.7675 10 32.295 12.15 32.875 15H20.625C21.205 12.15 23.7325 10 26.75 10Z" fill="#83BC82"/>
<path d="M51 25.5H21C20.337 25.5 19.7011 25.7634 19.2322 26.2322C18.7634 26.7011 18.5 27.337 18.5 28V48C18.5 49.3261 19.0268 50.5979 19.9645 51.5355C20.9021 52.4732 22.1739 53 23.5 53H48.5C49.8261 53 51.0979 52.4732 52.0355 51.5355C52.9732 50.5979 53.5 49.3261 53.5 48V28C53.5 27.337 53.2366 26.7011 52.7678 26.2322C52.2989 25.7634 51.663 25.5 51 25.5ZM36 41.5C29.1075 41.5 25 37.3925 25 30.5H28.5C28.5 34.635 31.865 38 36 38C40.135 38 43.5 34.635 43.5 30.5H47C47 37.3925 42.8925 41.5 36 41.5Z" fill="#83BC82"/>
</svg>
