<svg width="65" height="60" viewBox="0 0 65 60" fill="none" xmlns="http://www.w3.org/2000/svg">
<g clip-path="url(#clip0_82_9569)">
<path d="M5.61893 46.0127H52.4902C55.5932 46.0127 58.1091 43.6903 58.1091 40.8249V38.5541H62.1914C63.7412 38.5541 64.9998 37.3945 64.9998 35.9629V23.9372C64.9998 22.5077 63.74 21.3437 62.1914 21.3437H58.1093V19.175C58.1093 16.3107 55.5946 13.9872 52.4904 13.9872H5.61893C2.51837 13.9872 4.25143e-07 16.3094 4.25143e-07 19.175V40.8249C-0.00119463 43.6904 2.51718 46.0127 5.61893 46.0127ZM17.5119 26.4681H22.2015C23.819 22.6855 27.8524 19.9955 32.5743 19.9955H34.8525C36.5901 19.9955 38.0042 21.2395 38.1432 22.8105H43.5638C44.9389 22.8105 46.0513 23.8395 46.0513 25.1056C46.0513 26.3793 44.9389 27.405 43.5638 27.405H38.1693V32.4228H43.5638C44.9389 32.4228 46.0513 33.4496 46.0513 34.7167C46.0513 35.9849 44.9389 37.0107 43.5638 37.0107H38.1693V37.2629C38.1693 38.9568 36.6837 40.3268 34.8523 40.3268H32.5741C27.6563 40.3268 23.4859 37.3945 22.0077 33.3553H17.5107C15.4522 33.3553 13.7801 31.8118 13.7801 29.9106C13.7813 28.0094 15.4522 26.4681 17.5119 26.4681Z" fill="#7DB7A6"/>
</g>
<defs>
<clipPath id="clip0_82_9569">
<rect width="65" height="60" fill="white"/>
</clipPath>
</defs>
</svg>
