<svg width="61" height="60" viewBox="0 0 61 60" fill="none" xmlns="http://www.w3.org/2000/svg">
<path d="M54.3426 36.0094C54.0613 35.8894 53.7651 35.8182 53.4576 35.7919L53.4838 35.73L44.7632 31.95C44.7613 31.95 44.7595 31.9482 44.7576 31.9482L30.9913 25.98V33.0994L41.587 31.1175L41.2307 32.4919L39.847 37.845L36.5695 37.9632L30.9913 38.1638V47.8763L36.7738 50.3832L45.4945 54.1632L45.5038 54.1407C45.7101 54.3094 45.937 54.4482 46.1845 54.555C48.8582 55.6969 52.8538 52.4719 55.1057 47.3513C57.3576 42.2307 57.0163 37.1513 54.3426 36.0094ZM54.4045 47.0494C53.3901 49.3538 51.6876 50.8444 50.5982 50.3794C49.5088 49.9144 49.4488 47.67 50.4632 45.3657C51.4776 43.0613 53.1801 41.5707 54.2695 42.0357C55.3588 42.5007 55.4188 44.745 54.4045 47.0494ZM20.0357 4.10441C14.4182 4.10441 9.86383 6.44816 9.86383 9.33754C9.86383 9.42191 9.86758 9.50629 9.87508 9.59066V20.3682C8.38633 21.6732 6.9632 23.6569 5.9207 26.0607C3.75695 31.0519 4.0382 36.0075 6.52258 37.2638L6.5207 37.2694L6.66695 37.3332L10.117 38.8275V52.1175C10.117 52.1213 10.117 52.125 10.117 52.1288V52.2769H10.1226C10.2876 55.0557 14.722 57.285 20.1613 57.285C25.6007 57.285 30.037 55.0557 30.2001 52.2769H30.2057V9.80066H30.1663C30.1926 9.64691 30.2076 9.49316 30.2076 9.33566C30.2076 6.44441 25.6532 4.10441 20.0357 4.10441ZM20.0357 4.86191C22.5632 4.86191 24.6126 5.81629 24.6126 6.99191C24.6126 8.16754 22.5632 9.12191 20.0357 9.12191C17.5082 9.12191 15.4588 8.16754 15.4588 6.99191C15.4588 5.81629 17.5082 4.86191 20.0357 4.86191ZM14.5888 35.7263L13.1995 34.2657L17.5101 32.76L10.6195 22.5544L17.4838 21.4763L24.127 35.4057L21.3295 36.7913L27.382 49.1663L14.5888 35.7244V35.7263Z" fill="#596B79"/>
</svg>
