<svg width="61" height="60" viewBox="0 0 61 60" fill="none" xmlns="http://www.w3.org/2000/svg">
<path d="M57.8915 41.7782H49.8473C49.7773 41.7782 49.7087 41.7957 49.6399 41.801C49.3669 40.5794 48.2757 39.675 46.9732 39.675H32.5933C31.0857 39.675 29.7921 40.8505 29.7921 42.3581V46.4055H13.4463C9.78681 46.4055 6.80983 43.4663 6.80983 39.807C6.80983 36.1478 9.78681 33.1893 13.4446 33.1893L40.8331 33.2129C47.9718 33.2129 53.7796 27.3874 53.7796 20.2489C53.7796 13.1103 47.9718 7.28469 40.8331 7.28469H31.4748V3.08549C31.4748 1.57787 30.3215 0.343872 28.8139 0.343872H14.4338C13.1312 0.343872 12.0401 1.24828 11.767 2.46987C11.6985 2.46461 11.6297 2.44715 11.5599 2.44715H3.51526C2.00763 2.44715 0.766906 3.70533 0.766906 5.21296V15.5144C0.766906 17.022 2.00763 18.2217 3.51526 18.2217H11.5597C11.6297 18.2217 11.6983 18.2043 11.7668 18.1992C12.0398 19.4208 13.131 20.325 14.4336 20.325H28.8137C30.3213 20.325 31.4746 19.1495 31.4746 17.6419V13.5943H40.8329C44.4922 13.5943 47.4696 16.594 47.4696 20.2535C47.4696 23.9128 44.4924 26.9011 40.8346 26.9011L13.4461 26.8927C6.30757 26.8929 0.5 32.6656 0.5 39.8041C0.5 46.9426 6.30757 52.7153 13.4463 52.7153H29.7921V56.9145C29.7921 58.4221 31.0857 59.6561 32.5933 59.6561H46.9732C48.2757 59.6561 49.3669 58.7517 49.6399 57.5301C49.7087 57.5354 49.7773 57.5528 49.8473 57.5528H57.8915C59.3991 57.5528 60.4998 56.2946 60.4998 54.787V44.4858C60.5 42.978 59.3991 41.7782 57.8915 41.7782ZM9.60067 15.0666H4.55281V11.9117H9.60067V15.0666ZM9.60067 8.75677H4.55281V5.60186H9.60067V8.75677ZM56.7141 54.3979H51.6662V51.243H56.7141V54.3979ZM56.7141 48.0881H51.6662V44.9332H56.7141V48.0881Z" fill="#7FAA3E"/>
</svg>
