<svg width="42" height="44" viewBox="0 0 42 44" fill="none" xmlns="http://www.w3.org/2000/svg">
<path d="M6.76489 8.5625H9.4432C10.6388 8.5625 11.2366 8.5625 11.6867 8.90069C12.1368 9.23889 12.3258 9.83016 12.7039 11.0127L13.639 13.9375" stroke="black" stroke-width="2" stroke-linecap="round"/>
<path d="M30.8245 31.854H14.5859C14.3347 31.854 14.209 31.854 14.1137 31.8429C13.1039 31.725 12.4122 30.7244 12.6243 29.6884C12.6443 29.5906 12.684 29.4664 12.7634 29.2179C12.8517 28.942 12.8958 28.8041 12.9445 28.6824C13.4433 27.4361 14.5719 26.5879 15.8638 26.4887C15.9899 26.479 16.1294 26.479 16.4083 26.479H25.6689" stroke="black" stroke-width="2" stroke-linecap="round" stroke-linejoin="round"/>
<path d="M25.1167 26.4792H19.8905C17.6921 26.4792 16.5929 26.4792 15.732 25.8874C14.8711 25.2956 14.4381 24.2423 13.5721 22.1356L13.282 21.4299C11.8909 18.0457 11.1953 16.3536 11.9594 15.1455C12.7234 13.9375 14.4892 13.9375 18.0207 13.9375H27.0961C31.0471 13.9375 33.0225 13.9375 33.7677 15.2761C34.5128 16.6146 33.5326 18.4029 31.5724 21.9792L31.0852 22.8682C30.1194 24.63 29.6367 25.511 28.8365 25.9951C28.0364 26.4792 27.0632 26.4792 25.1167 26.4792Z" stroke="black" stroke-width="2" stroke-linecap="round"/>
<path d="M29.9651 38.1248C30.9142 38.1248 31.6837 37.3227 31.6837 36.3332C31.6837 35.3437 30.9142 34.5415 29.9651 34.5415C29.016 34.5415 28.2466 35.3437 28.2466 36.3332C28.2466 37.3227 29.016 38.1248 29.9651 38.1248Z" fill="black"/>
<path d="M16.2168 38.1248C17.166 38.1248 17.9354 37.3227 17.9354 36.3332C17.9354 35.3437 17.166 34.5415 16.2168 34.5415C15.2677 34.5415 14.4983 35.3437 14.4983 36.3332C14.4983 37.3227 15.2677 38.1248 16.2168 38.1248Z" fill="black"/>
</svg>
