<svg width="65" height="60" viewBox="0 0 65 60" fill="none" xmlns="http://www.w3.org/2000/svg">
<path fill-rule="evenodd" clip-rule="evenodd" d="M7.5 2.55319C7.5 1.41924 8.41925 0.5 9.55319 0.5H34.1915C35.3254 0.5 36.2447 1.41925 36.2447 2.55319V57.4468C36.2447 58.5808 35.3254 59.5 34.1915 59.5H9.55319C8.41924 59.5 7.5 58.5808 7.5 57.4468V2.55319ZM39.7571 2.05319C39.6595 1.46056 39.3912 0.925446 39.0044 0.5H56.1489C57.2829 0.5 58.2021 1.41925 58.2021 2.55319V57.4468C58.2021 58.5808 57.2829 59.5 56.1489 59.5H39.0044C39.3912 59.0746 39.6595 58.5394 39.7571 57.9468H53.9787C55.665 57.9468 57.0319 56.5798 57.0319 54.8936V5.10638C57.0319 3.42015 55.665 2.05319 53.9787 2.05319H39.7571ZM10.7247 2.05319C9.74353 2.05319 8.94812 2.8486 8.94812 3.82979V13.4043C8.94812 14.3854 9.74353 15.1809 10.7247 15.1809H19.8001C20.7813 15.1809 21.5767 14.3854 21.5767 13.4043V3.82979C21.5767 2.8486 20.7813 2.05319 19.8001 2.05319H10.7247ZM12.5013 11.6277V5.60638H18.0235V11.6277H12.5013ZM39.7979 50.4362V5.60638H53.4787V54.3936H49.7553V53.4894C49.7553 51.8031 48.3884 50.4362 46.7021 50.4362H39.7979ZM40.1809 54.3936V53.9894H46.2021V54.3936H40.1809Z" fill="#88C6A4"/>
</svg>
