<svg width="61" height="60" viewBox="0 0 61 60" fill="none" xmlns="http://www.w3.org/2000/svg">
<path d="M30.5 12.5C25.8587 12.5 21.4075 14.3437 18.1256 17.6256C14.8437 20.9075 13 25.3587 13 30V32.5H18.2C19.875 32.5 20.7 32.5 21.35 32.825C21.925 33.125 22.375 33.575 22.675 34.15C23 34.775 23 35.625 23 37.3V47.7C23 49.375 23 50.2 22.675 50.85C22.375 51.425 21.925 51.875 21.35 52.175C20.725 52.5 19.875 52.5 18.2 52.5H16C13.2 52.5 11.8 52.5 10.75 51.95C9.80518 51.4758 9.03496 50.7143 8.55 49.775C8.05 48.75 8 47.475 8 45V30C8 27.0453 8.58198 24.1194 9.71271 21.3896C10.8434 18.6598 12.5008 16.1794 14.5901 14.0901C16.6794 12.0008 19.1598 10.3434 21.8896 9.21271C24.6194 8.08198 27.5453 7.5 30.5 7.5C33.4547 7.5 36.3806 8.08198 39.1104 9.21271C41.8402 10.3434 44.3206 12.0008 46.4099 14.0901C48.4992 16.1794 50.1566 18.6598 51.2873 21.3896C52.418 24.1194 53 27.0453 53 30V45C53 47.475 52.975 48.75 52.45 49.75C51.9758 50.6948 51.2143 51.465 50.275 51.95C49.2 52.5 47.8 52.5 45 52.5H42.8C41.125 52.5 40.3 52.5 39.65 52.175C39.0782 51.8861 38.6139 51.4218 38.325 50.85C38 50.225 38 49.375 38 47.7V37.3C38 35.625 38 34.8 38.325 34.15C38.625 33.575 39.075 33.125 39.65 32.825C40.275 32.5 41.125 32.5 42.8 32.5H48V30C48 25.3587 46.1563 20.9075 42.8744 17.6256C39.5925 14.3437 35.1413 12.5 30.5 12.5Z" fill="#9F7DA7"/>
</svg>
