<svg width="20" height="20" viewBox="0 0 20 20" fill="none" xmlns="http://www.w3.org/2000/svg">
<path d="M9.99967 2.2915C9.28771 2.29181 8.58282 2.43279 7.92551 2.70635C7.2682 2.97991 6.67142 3.38066 6.16947 3.88557C5.1528 4.9082 4.58241 6.29179 4.58301 7.7338C4.58301 9.46255 5.03051 10.7201 6.75082 12.8273C7.55 13.7359 8.25023 14.7269 8.83967 15.7836C9.46342 17.0541 9.38988 17.9165 9.99967 17.9165C10.6095 17.9165 10.5359 17.0541 11.1597 15.7836C11.7491 14.7269 12.4493 13.7359 13.2485 12.8273C14.9688 10.7201 15.4163 9.46244 15.4163 7.7338C15.4169 6.29179 14.8465 4.90821 13.8299 3.88557C13.3279 3.38066 12.7311 2.97991 12.0738 2.70635C11.4165 2.43279 10.7116 2.29181 9.99967 2.2915Z" stroke="#8A8A8A" stroke-width="2"/>
<path d="M10.0003 9.79167C11.1509 9.79167 12.0837 8.85893 12.0837 7.70833C12.0837 6.55774 11.1509 5.625 10.0003 5.625C8.84973 5.625 7.91699 6.55774 7.91699 7.70833C7.91699 8.85893 8.84973 9.79167 10.0003 9.79167Z" stroke="#8A8A8A" stroke-width="2"/>
</svg>
