<svg width="170" height="48" viewBox="0 0 170 48" fill="none" xmlns="http://www.w3.org/2000/svg">
<path d="M19.0837 24.0518C19.0725 24.0415 19.0333 24.0052 19.0277 24C16.2416 26.547 11.7569 26.5522 8.96517 24.0052C8.95396 24.0155 8.94272 24.0207 8.93712 24.0311C6.13978 26.6144 6.08936 36 6.08936 36C6.08936 36 16.264 35.9637 19.0613 33.3805C19.0725 33.3701 19.0781 33.3599 19.0894 33.3547C16.3313 30.7818 16.3257 26.6247 19.0837 24.0518Z" fill="black"/>
<path d="M19.0998 24.0518C19.1102 24.0415 19.1466 24.0052 19.1518 24C21.7366 26.547 25.8922 26.5522 28.4823 24.0052C28.4927 24.0155 28.5031 24.0207 28.5083 24.0311C31.1035 26.6144 31.1608 36 31.1608 36C31.1608 36 21.7107 35.9637 19.1154 33.3856C19.105 33.3753 19.0998 33.365 19.0894 33.3599C21.6482 30.7818 21.6586 26.6247 19.0998 24.0518Z" fill="#018BD4"/>
<path d="M19.105 23.9444C19.1154 23.9556 19.1518 23.9947 19.157 24.0002C21.743 21.2585 25.9004 21.2529 28.4915 23.9946C28.502 23.9835 28.5123 23.9779 28.5175 23.9668C31.1139 21.186 31.1608 11.0771 31.1608 11.0771C31.1608 11.0771 21.7118 11.1216 19.1154 13.9024C19.105 13.9136 19.0998 13.9247 19.0894 13.9303C21.6493 16.7055 21.6597 21.1748 19.105 23.9444Z" fill="#E83A43"/>
<path d="M19.0781 23.9444C19.0669 23.9556 19.0277 23.9947 19.0221 24.0002C16.236 21.2585 11.7457 21.2529 8.95956 23.9946C8.94835 23.9835 8.93711 23.9779 8.93151 23.9668C6.13417 21.186 6.08936 11.0771 6.08936 11.0771C6.08936 11.0771 16.264 11.1216 19.0613 13.9024C19.0725 13.9136 19.0781 13.9247 19.0894 13.9303C16.3257 16.7055 16.32 21.1748 19.0781 23.9444Z" fill="#FFCC03"/>
<path d="M45.8968 27.1852C45.2605 26.0878 45.1133 24.7709 45.1133 23.8272C45.1133 22.3511 45.5445 21.0617 46.3018 20.1399C47.0591 19.218 48.1476 18.6747 49.4466 18.6747C50.5983 18.6747 51.6238 18.982 52.4757 19.3771V14.4442L52.2128 14.3839C51.4976 14.2138 50.6614 13.8462 48.8892 13.8462C41.9738 13.8627 39.5283 18.9437 39.5178 24.0028C39.5283 29.9288 42.7257 34.1429 48.7314 34.1539C49.841 34.1539 50.7614 33.9892 52.5178 33.3911V28.4143C50.998 29.0179 50.1303 29.1276 49.5518 29.1276C47.6586 29.1276 46.5332 28.2826 45.8968 27.1852Z" fill="black"/>
<path d="M62.4243 28.7503C62.1999 29.4651 61.5648 30.0787 60.8806 30.0787H60.8696C60.1798 30.0843 59.5996 29.4539 59.3368 28.7503C59.1288 28.1875 58.9865 27.18 58.9865 26.392C58.9865 25.604 59.1069 24.6641 59.3368 23.8648C59.5449 23.1388 60.1798 22.5308 60.8696 22.5364C61.5593 22.5308 62.2108 23.1444 62.4243 23.8648C62.6378 24.5797 62.7363 25.5139 62.7363 26.3075C62.7363 27.0955 62.6159 28.1424 62.4243 28.7503ZM68.3037 26.3075C68.2982 21.4051 65.457 18.4727 60.8751 18.4614C56.2876 18.4783 53.452 21.4051 53.4465 26.3075C53.452 31.2156 56.2931 34.1425 60.8751 34.1537C65.457 34.1368 68.2927 31.2099 68.3037 26.3075Z" fill="black"/>
<path d="M85.6406 28.7503C85.3889 29.4539 84.7814 30.0787 84.0974 30.0787H84.0864C83.3969 30.0843 82.8005 29.4595 82.5543 28.7503C82.3408 28.1256 82.204 27.0955 82.204 26.3075C82.204 25.5139 82.3408 24.5346 82.5543 23.8648C82.7841 23.15 83.3969 22.5308 84.0864 22.5364C84.7759 22.5308 85.3889 23.1556 85.6406 23.8648C85.8869 24.5571 85.9689 25.5139 85.9689 26.3075C85.9744 27.0955 85.8321 28.2269 85.6406 28.7503ZM91.5178 26.3075C91.5123 21.4051 88.6722 18.4727 84.0864 18.4614C79.5007 18.4783 76.6661 21.4051 76.6606 26.3075C76.6661 31.2156 79.5062 34.1425 84.0864 34.1537C88.6722 34.1368 91.5123 31.2099 91.5178 26.3075Z" fill="black"/>
<path d="M75.7322 13.8462H69.2322V33.2308H75.7322V13.8462Z" fill="black"/>
<path d="M98.2355 22.3971L98.208 22.4997H98.1202H98.0708V19.1661H92.8108V33.5542H98.4442V28.3781C98.4442 27.0706 98.8065 26.0549 99.3995 25.3742C99.9925 24.688 100.811 24.3421 101.711 24.3421C102.09 24.3421 102.463 24.4286 102.804 24.5258V18.9445C102.529 18.8797 102.227 18.8311 101.969 18.8311C100.08 18.8257 98.6967 20.5817 98.2355 22.3971Z" fill="black"/>
<path d="M155.799 19.3174L153.757 28.362H153.57L151.099 19.3174H145.268L150.166 33.8676L150.155 33.9162L150.029 34.3863C149.935 34.7699 149.491 35.7478 147.931 35.737C147.349 35.737 146.696 35.6506 146.13 35.5101V39.1787C147.459 39.5083 148.98 39.6921 150.127 39.6921C154.278 39.6813 155.909 37.158 156.859 34.0512L161.317 19.3227H155.799V19.3174Z" fill="black"/>
<path d="M139.371 28.227C139.366 29.9559 138.405 30.7339 137.417 30.7339C136.445 30.7339 135.748 30.0694 135.748 29.1779C135.759 27.3517 137.56 27.2544 138.548 27.2544C138.669 27.2544 138.779 27.2598 138.877 27.2598H139.377V28.227H139.371ZM137.724 18.9878C135.89 18.9878 133.557 19.2796 131.586 19.8415V23.2831C133.903 22.2836 135.973 22.2296 136.088 22.2296C137.384 22.2296 139.338 22.4674 139.371 24.1801V24.7906H138.312H138.213C136.549 24.7906 134.485 24.8284 132.849 25.4498C131.179 26.0927 129.966 27.2813 129.955 29.7343C129.972 32.0954 131.344 33.9379 134.457 33.9541C135.868 33.9487 137.741 33.6353 139.218 31.8307H139.371V33.6137H144.912V24.4556C144.906 20.2034 141.277 18.9986 137.724 18.9878Z" fill="black"/>
<path d="M124.82 13.8462L122.404 27.0308H122.222L120.309 13.8462H114.018L112.452 26.7587H112.238L109.72 13.8462H103.589L107.898 33.2308H115.477L117.043 21.4283H117.209L118.727 33.2308H126.258L130.518 13.8462H124.82Z" fill="black"/>
</svg>
