<svg width="26" height="23" viewBox="0 0 26 23" fill="none" xmlns="http://www.w3.org/2000/svg">
<path d="M8 0.398926C6.72439 0.566413 5.48151 1.05577 4.4 1.8669L1.46667 4.0669C0.543379 4.75936 0 5.84612 0 7.00023V18.5056C0 21.4562 3.36854 23.1405 5.72903 21.3701C6.41638 20.8546 7.19474 20.5219 8 20.372V0.398926Z" fill="#8A8A8A"/>
<path d="M10 20.372C10.8053 20.5219 11.5836 20.8546 12.271 21.3701L12.4 21.4669C13.4815 22.278 14.7244 22.7674 16 22.9349V2.96176C15.1947 2.81185 14.4164 2.47918 13.729 1.96367L13.6 1.8669C12.5185 1.05577 11.2756 0.566413 10 0.398926V20.372Z" fill="#8A8A8A"/>
<path d="M18 2.96176V22.9349C19.2756 22.7674 20.5185 22.278 21.6 21.4669L24.5333 19.2669C25.4566 18.5744 26 17.4877 26 16.3336V4.82819C26 1.87757 22.6315 0.193302 20.271 1.96367C19.5836 2.47918 18.8053 2.81185 18 2.96176Z" fill="#8A8A8A"/>
</svg>
