<svg width="33" height="32" viewBox="0 0 33 32" fill="none" xmlns="http://www.w3.org/2000/svg">
<path fill-rule="evenodd" clip-rule="evenodd" d="M16.4268 0.00146484H16.0137L15.6213 0.165968L9.61116 6.10861C9.35299 6.4479 9.44077 6.70493 9.86933 6.70493H12.5285C12.9622 6.70493 13.303 7.04422 13.303 7.4709V11.8816C13.303 12.3083 13.6489 12.6476 14.0775 12.6476H18.4508C18.9672 12.6476 19.3131 12.3083 19.3131 11.8816V7.4709C19.3131 7.04422 19.6539 6.70493 20.0825 6.70493H22.5712C22.9998 6.70493 23.0875 6.4479 22.8294 6.10861L16.8244 0.165968L16.4268 0.00146484ZM26.3503 9.67859C26.2213 9.50895 26.0922 9.44726 25.9941 9.4781C25.896 9.50895 25.834 9.63747 25.834 9.84823V21.9854C25.834 22.2013 25.896 22.3504 25.9941 22.4018C26.0922 22.4532 26.2213 22.4121 26.3503 22.2425L32.1849 16.4694C32.5257 16.2176 32.5257 15.7035 32.1849 15.3642L26.3503 9.67859ZM6.60652 9.34533C6.71495 9.39674 6.78207 9.54581 6.78207 9.76172V22.1508C6.78207 22.3667 6.71495 22.4952 6.60652 22.5364C6.50325 22.5775 6.35351 22.5364 6.17796 22.4078L0.255586 16.4652C-0.0851954 16.2133 -0.0851954 15.6992 0.255586 15.3599L6.17796 9.50469C6.35351 9.33505 6.50325 9.29392 6.60652 9.34533ZM18.4509 19.0957H14.0776C13.649 19.0957 13.3031 19.435 13.3031 19.8617V24.5294C13.3031 25.0384 12.9623 25.3776 12.5286 25.3776H10.0398C9.61128 25.3776 9.44089 25.6295 9.78683 25.8866L15.6214 31.7418C15.7918 31.9115 16.0087 31.9989 16.2204 31.9989C16.4372 31.9989 16.6489 31.9115 16.8245 31.7418L22.6591 25.8866C22.9999 25.6295 22.8295 25.3776 22.4009 25.3776H20.0826C19.654 25.3776 19.3132 25.0384 19.3132 24.5294V19.8617C19.3132 19.435 18.9673 19.0957 18.4509 19.0957Z" fill="#ED1C24"/>
</svg>
