<svg width="61" height="60" viewBox="0 0 61 60" fill="none" xmlns="http://www.w3.org/2000/svg">
<g clip-path="url(#clip0_82_9520)">
<path d="M19.25 3.75C17.1846 3.75 15.5 5.43457 15.5 7.5V11.25H45.5V7.5C45.5 5.43457 43.8154 3.75 41.75 3.75H19.25ZM8 15C3.83984 15 0.5 18.3398 0.5 22.5V37.5C0.5 41.6602 3.83984 45 8 45V43.75C8 47.8369 11.4131 51.25 15.5 51.25H45.5C49.5869 51.25 53 47.8369 53 43.75V45C57.1602 45 60.5 41.6602 60.5 37.5V22.5C60.5 18.3398 57.1602 15 53 15H8ZM15.5 37.5H45.5V41.5H15.5V37.5Z" fill="#E58673"/>
</g>
<defs>
<clipPath id="clip0_82_9520">
<rect width="60" height="60" fill="white" transform="translate(0.5)"/>
</clipPath>
</defs>
</svg>
