<svg width="24" height="25" viewBox="0 0 24 25" fill="none" xmlns="http://www.w3.org/2000/svg">
  <path  class="reload" d="M4.00001 12.4998C4.00001 12.765 3.89466 13.0194 3.70712 13.2069C3.51958 13.3945 3.26523 13.4998 3.00001 13.4998C2.7348 13.4998 2.48044 13.3945 2.29291 13.2069C2.10537 13.0194 2.00001 12.765 2.00001 12.4998C1.99685 10.6155 2.52706 8.76868 3.52937 7.17299C4.53168 5.57731 5.96514 4.29789 7.66402 3.48265C9.3629 2.66742 11.2578 2.34965 13.1297 2.5661C15.0016 2.78255 16.774 3.52438 18.242 4.70581V3.25781C18.242 2.9926 18.3474 2.73824 18.5349 2.55071C18.7224 2.36317 18.9768 2.25781 19.242 2.25781C19.5072 2.25781 19.7616 2.36317 19.9491 2.55071C20.1367 2.73824 20.242 2.9926 20.242 3.25781V7.25781C20.242 7.52303 20.1367 7.77738 19.9491 7.96492C19.7616 8.15246 19.5072 8.25781 19.242 8.25781H15.242C14.9768 8.25781 14.7224 8.15246 14.5349 7.96492C14.3474 7.77738 14.242 7.52303 14.242 7.25781C14.242 6.9926 14.3474 6.73824 14.5349 6.55071C14.7224 6.36317 14.9768 6.25781 15.242 6.25781H16.985C15.8101 5.31472 14.3924 4.72322 12.8956 4.55162C11.3987 4.38003 9.88393 4.63535 8.52607 5.28809C7.1682 5.94082 6.02267 6.96435 5.22179 8.24047C4.42091 9.51657 3.99734 10.9932 4.00001 12.4998ZM21 11.4998C20.7348 11.4998 20.4804 11.6052 20.2929 11.7927C20.1054 11.9802 20 12.2346 20 12.4998C20.0027 14.0064 19.5791 15.483 18.7782 16.7592C17.9774 18.0353 16.8318 19.0588 15.474 19.7115C14.1161 20.3643 12.6013 20.6196 11.1045 20.448C9.60767 20.2764 8.18994 19.6849 7.01501 18.7418H8.75701C9.02223 18.7418 9.27658 18.6365 9.46412 18.4489C9.65166 18.2614 9.75701 18.007 9.75701 17.7418C9.75701 17.4766 9.65166 17.2222 9.46412 17.0347C9.27658 16.8472 9.02223 16.7418 8.75701 16.7418H4.75701C4.4918 16.7418 4.23744 16.8472 4.04991 17.0347C3.86237 17.2222 3.75701 17.4766 3.75701 17.7418V21.7418C3.75701 22.007 3.86237 22.2614 4.04991 22.4489C4.23744 22.6365 4.4918 22.7418 4.75701 22.7418C5.02223 22.7418 5.27658 22.6365 5.46412 22.4489C5.65166 22.2614 5.75701 22.007 5.75701 21.7418V20.2938C7.22512 21.4751 8.99757 22.2169 10.8695 22.4333C12.7414 22.6497 14.6363 22.3319 16.3352 21.5167C18.0341 20.7015 19.4677 19.4221 20.4701 17.8265C21.4725 16.2309 22.0029 14.3842 22 12.4998C22 12.2346 21.8947 11.9802 21.7071 11.7927C21.5196 11.6052 21.2652 11.4998 21 11.4998Z" fill="var(--secondary-color)"/>
</svg>
