<svg width="23" height="22" viewBox="0 0 23 22" fill="none" xmlns="http://www.w3.org/2000/svg">
<path fill-rule="evenodd" clip-rule="evenodd" d="M11.2195 14.9359C8.66356 14.9359 6.59157 12.9 6.59157 10.3845C6.59157 7.86903 8.66356 5.82903 11.2195 5.82903C13.7755 5.82903 15.8479 7.86903 15.8479 10.3845C15.8479 12.9 13.7755 14.9359 11.2195 14.9359ZM18.6266 17.2929L15.2705 13.9891C16.149 13.0341 16.6891 11.7743 16.6891 10.3845C16.6891 7.40982 14.2404 5 11.2195 5C8.19869 5 5.75 7.40982 5.75 10.3845C5.75 13.3551 8.19869 15.7649 11.2195 15.7649C12.5247 15.7649 13.7219 15.3139 14.6622 14.5621L18.0317 17.8781C18.1962 18.0406 18.4624 18.0406 18.6266 17.8781C18.7911 17.7196 18.7911 17.4555 18.6266 17.2929Z" fill="white" stroke="white" stroke-width="0.5"/>
</svg>
