<svg width="20" height="20" viewBox="0 0 20 20" fill="none" xmlns="http://www.w3.org/2000/svg">
<path d="M14.6112 8.77346C14.8542 8.5283 14.8524 8.13257 14.6073 7.88959C14.3621 7.6466 13.9664 7.64837 13.7234 7.89353L12.2673 9.36267C11.6764 9.95892 11.2697 10.3679 10.9251 10.6447C10.5903 10.9135 10.3753 11.0057 10.1827 11.0303C10.0618 11.0457 9.93948 11.0457 9.81856 11.0303C9.626 11.0057 9.41099 10.9135 9.07624 10.6447C8.73163 10.3679 8.32493 9.95892 7.73398 9.36267L6.27789 7.89353C6.03491 7.64837 5.63918 7.6466 5.39402 7.88959C5.14885 8.13257 5.14709 8.5283 5.39008 8.77346L6.8724 10.2691C7.43068 10.8324 7.88697 11.2928 8.29353 11.6193C8.71631 11.9588 9.14542 12.2046 9.66052 12.2702C9.88637 12.299 10.1149 12.299 10.3408 12.2702C10.8559 12.2046 11.285 11.9588 11.7078 11.6193C12.1143 11.2928 12.5706 10.8324 13.1289 10.2691L14.6112 8.77346Z" fill="black"/>
</svg>
