<svg width="28" height="28" viewBox="0 0 28 28" fill="none" xmlns="http://www.w3.org/2000/svg">
<rect width="28" height="28" fill="#1E1E1E"/>
<g id="Katalog" clip-path="url(#clip0_0_1)">
<rect width="1440" height="1024" transform="translate(-40 -140)" fill="white"/>
<g id="Group 45">
<g id="&#208;&#186;&#208;&#176;&#209;&#130;&#208;&#181;&#208;&#179;&#208;&#190;&#209;&#128;&#209;&#150;&#209;&#151;">
<g id="Frame 16">
<g id="Group 71">
<rect id="Rectangle 64" width="14" height="90" rx="2" transform="matrix(-1 0 0 1 20.4258 -29)" fill="#F0F0F0"/>
<path id="Vector 6" d="M15.4258 10L11.4258 16L15.4258 22" stroke="#8A8A8A" stroke-linecap="round"/>
</g>
</g>
</g>
</g>
<rect id="Rectangle 68" opacity="0.4" x="-40" y="-140" width="1440" height="1221" fill="black"/>
<g id="Frame 81">
<rect width="378" height="1024" transform="translate(-40 -140)" fill="white"/>
<g id="Frame 1244831056">
<g id="Frame 18">
<path id="&#208;&#146;&#208;&#184;&#209;&#130;&#209;&#128;&#208;&#176;&#209;&#130;&#208;&#189;&#209;&#150; &#208;&#188;&#208;&#176;&#209;&#130;&#208;&#181;&#209;&#128;&#209;&#150;&#208;&#176;&#208;&#187;&#208;&#184; &#208;&#180;&#208;&#187;&#209;&#143; &#208;&#191;&#209;&#128;&#208;&#184;&#208;&#189;&#209;&#130;&#208;&#181;&#209;&#128;&#209;&#150;&#208;&#178;" d="M9.4 6.15C9.86667 6.76667 10.1167 7.53333 10.1167 8.33333C10.1167 9.1 9.86667 9.86667 9.4 10.5167C8.93333 11.1333 8.26667 11.5833 7.53333 11.8167C7.16667 11.9167 6.78333 12 6.4 12H1.33333V-9.53674e-07H6.11667C6.46667 -9.53674e-07 6.81667 0.0499992 7.15 0.166666C7.85 0.366666 8.46667 0.799999 8.86667 1.38333C9.31667 1.95 9.55 2.68333 9.56667 3.41667C9.58333 4.11667 9.31667 4.85 8.86667 5.41667C8.85 5.45 8.81667 5.48333 8.8 5.5C9.01667 5.7 9.21667 5.91667 9.4 6.15ZM6.1 2.11667H3.63333V4.66667H6.23333C6.46667 4.61667 6.8 4.43333 6.98333 4.2C7.16667 3.98333 7.28333 3.7 7.26667 3.41667C7.25 3.1 7.15 2.78333 6.93333 2.55C6.76667 2.33333 6.36667 2.11667 6.1 2.11667ZM7.83333 8.33333C7.85 7.93333 7.68333 7.51667 7.4 7.21667C7.06667 6.88333 6.75 6.8 6.36667 6.8H3.63333V9.86667H6.36667C6.73333 9.86667 7.06667 9.7 7.33333 9.46667C7.66667 9.18333 7.81667 8.76667 7.83333 8.33333ZM20.2479 3V12H17.9479V6.58333L13.9479 12H11.9479V3H14.2479V8.23333L18.2479 3H20.2479ZM30.0052 3V5H27.0552V12H24.7885V5H21.8385V3H30.0052ZM39.2885 4.18333C39.9885 5.06667 40.3385 6.25 40.3385 7.5C40.3385 8.73333 40.0552 9.88333 39.2885 10.8167C38.5552 11.7333 37.3719 12.25 36.1885 12.25C35.3219 12.25 34.5219 12.05 33.8719 11.65V16H31.5885V3H33.5885V3.56667C34.2719 3.05 35.1552 2.75 36.0719 2.75C37.3219 2.75 38.5219 3.23333 39.2885 4.18333ZM37.4885 9.43333C37.8052 8.96667 37.9385 8.26667 37.9385 7.5C37.9385 6.73333 37.7719 6.03333 37.4552 5.56667C37.0719 4.98333 36.4885 4.76667 35.7385 4.76667C35.1219 4.76667 34.5885 4.96667 34.2219 5.4C33.7885 5.9 33.5885 6.68333 33.5885 7.5C33.5885 8.31667 33.7885 9.11667 34.2219 9.6C34.6219 10.0333 35.1719 10.2333 35.8219 10.2333C36.4552 10.2333 37.1052 10.0167 37.4885 9.43333ZM44 5.65L41.9333 4.66667C41.9833 4.6 42.05 4.48333 42.1167 4.4C42.9333 3.25 44.1667 2.76667 45.65 2.76667C47.3 2.76667 48.6333 3.31667 49.3667 4.55C49.7167 5.13333 49.85 5.8 49.85 6.35V12H47.8667V10.4667C47.7 10.95 47.15 11.45 46.75 11.6833C46.1167 12.0667 45.3333 12.2333 44.65 12.2333C43.7667 12.2333 42.85 11.8 42.3667 11.2333C41.9 10.5833 41.6667 10.1333 41.6667 9.35C41.6667 8.38333 42.2667 7.43333 43.1167 6.93333C44.1167 6.4 44.8167 6.38333 46.1 6.18333L47.55 5.98333C47.4667 5.63333 47.2167 5.33333 46.8833 5.15C46.5167 4.93333 46.0667 4.85 45.6 4.86667C45.0167 4.86667 44.5333 5 44.1833 5.41667C44.1167 5.48333 44.05 5.56667 44 5.65ZM47.6 7.8L45.9333 8.11667C44.9667 8.3 43.95 8.48333 43.9167 9.2C43.8833 9.73333 44.3667 10.2 45.1 10.1667C46.05 10.1333 47.2 9.66667 47.4833 8.58333C47.5833 8.21667 47.6 7.88333 47.6 7.8ZM59.4271 3V5H56.4771V12H54.2104V5H51.2604V3H59.4271ZM66.9771 3H69.2438V12H66.9771V8.48333H63.2771V12H61.0104V3H63.2771V6.21667H66.9771V3ZM71.7396 -0.250001H74.0063V1.75H71.7396V-0.250001ZM71.7396 3H74.0063V12H71.7396V3ZM87.7052 3H89.7052V12H87.4052V7.85L85.3719 11H84.1719L82.1385 7.85V12H79.8385V3H81.8385L84.7719 7.53333L87.7052 3ZM93.875 5.65L91.8083 4.66667C91.8583 4.6 91.925 4.48333 91.9917 4.4C92.8083 3.25 94.0417 2.76667 95.525 2.76667C97.175 2.76667 98.5083 3.31667 99.2417 4.55C99.5917 5.13333 99.725 5.8 99.725 6.35V12H97.7417V10.4667C97.575 10.95 97.025 11.45 96.625 11.6833C95.9917 12.0667 95.2083 12.2333 94.525 12.2333C93.6417 12.2333 92.725 11.8 92.2417 11.2333C91.775 10.5833 91.5417 10.1333 91.5417 9.35C91.5417 8.38333 92.1417 7.43333 92.9917 6.93333C93.9917 6.4 94.6917 6.38333 95.975 6.18333L97.425 5.98333C97.3417 5.63333 97.0917 5.33333 96.7583 5.15C96.3917 4.93333 95.9417 4.85 95.475 4.86667C94.8917 4.86667 94.4083 5 94.0583 5.41667C93.9917 5.48333 93.925 5.56667 93.875 5.65ZM97.475 7.8L95.8083 8.11667C94.8417 8.3 93.825 8.48333 93.7917 9.2C93.7583 9.73333 94.2417 10.2 94.975 10.1667C95.925 10.1333 97.075 9.66667 97.3583 8.58333C97.4583 8.21667 97.475 7.88333 97.475 7.8ZM109.302 3V5H106.352V12H104.085V5H101.135V3H109.302ZM112.835 8.11667C112.902 8.58333 113.035 9.01667 113.302 9.36667C113.669 9.86667 114.285 10.1333 114.935 10.1333C115.602 10.1333 116.202 9.86667 116.585 9.36667C116.652 9.26667 116.685 9.16667 116.752 9.08333L119.002 10.0667C118.852 10.3167 118.669 10.5667 118.469 10.8C117.569 11.8 116.269 12.3167 114.935 12.25C113.602 12.1833 112.319 11.75 111.485 10.75C110.719 9.81667 110.352 8.68333 110.385 7.5C110.419 6.25 110.735 5.15 111.485 4.25C112.319 3.26667 113.602 2.75 114.935 2.75C116.269 2.75 117.552 3.25 118.385 4.25C119.135 5.15 119.485 6.3 119.485 7.5C119.485 7.7 119.469 7.91667 119.452 8.11667H112.835ZM114.935 4.86667C114.285 4.86667 113.669 5.11667 113.302 5.63333C113.135 5.85 113.019 6.1 112.935 6.36667H116.935C116.852 6.1 116.735 5.85 116.585 5.63333C116.202 5.11667 115.602 4.86667 114.935 4.86667ZM129.023 4.18333C129.723 5.06667 130.073 6.25 130.073 7.5C130.073 8.73333 129.79 9.88333 129.023 10.8167C128.29 11.7333 127.106 12.25 125.923 12.25C125.056 12.25 124.256 12.05 123.606 11.65V16H121.323V3H123.323V3.56667C124.006 3.05 124.89 2.75 125.806 2.75C127.056 2.75 128.256 3.23333 129.023 4.18333ZM127.223 9.43333C127.54 8.96667 127.673 8.26667 127.673 7.5C127.673 6.73333 127.506 6.03333 127.19 5.56667C126.806 4.98333 126.223 4.76667 125.473 4.76667C124.856 4.76667 124.323 4.96667 123.956 5.4C123.523 5.9 123.323 6.68333 123.323 7.5C123.323 8.31667 123.523 9.11667 123.956 9.6C124.356 10.0333 124.906 10.2333 125.556 10.2333C126.19 10.2333 126.84 10.0167 127.223 9.43333ZM132.068 -0.250001H134.334V1.75H132.068V-0.250001ZM132.068 3H134.334V12H132.068V3ZM138.672 5.65L136.605 4.66667C136.655 4.6 136.722 4.48333 136.789 4.4C137.605 3.25 138.839 2.76667 140.322 2.76667C141.972 2.76667 143.305 3.31667 144.039 4.55C144.389 5.13333 144.522 5.8 144.522 6.35V12H142.539V10.4667C142.372 10.95 141.822 11.45 141.422 11.6833C140.789 12.0667 140.005 12.2333 139.322 12.2333C138.439 12.2333 137.522 11.8 137.039 11.2333C136.572 10.5833 136.339 10.1333 136.339 9.35C136.339 8.38333 136.939 7.43333 137.789 6.93333C138.789 6.4 139.489 6.38333 140.772 6.18333L142.222 5.98333C142.139 5.63333 141.889 5.33333 141.555 5.15C141.189 4.93333 140.739 4.85 140.272 4.86667C139.689 4.86667 139.205 5 138.855 5.41667C138.789 5.48333 138.722 5.56667 138.672 5.65ZM142.272 7.8L140.605 8.11667C139.639 8.3 138.622 8.48333 138.589 9.2C138.555 9.73333 139.039 10.2 139.772 10.1667C140.722 10.1333 141.872 9.66667 142.155 8.58333C142.255 8.21667 142.272 7.88333 142.272 7.8ZM147.949 3H154.632V12H152.499V5H149.799L149.266 9.06667C148.966 11.35 147.966 12.3667 145.849 12V10C147.016 10 147.116 9.48333 147.232 8.56667L147.949 3ZM165.264 3V12H162.964V6.58333L158.964 12H156.964V3H159.264V8.23333L163.264 3H165.264ZM178.766 3V9.86667H179.516V13.0667H177.382V12H172.232V13.0667H170.099V9.86667C171.032 9.86667 171.616 8.85 171.866 6.78333L172.299 3H178.766ZM176.632 9.86667V5H174.149L173.916 7.03333C173.782 8.25 173.532 9.3 173.082 9.86667H176.632ZM182.777 3H189.46V12H187.327V5H184.627L184.094 9.06667C183.794 11.35 182.794 12.3667 180.677 12V10C181.844 10 181.944 9.48333 182.06 8.56667L182.777 3ZM194.425 3H199.175V12H196.875V9.13333H195.242L193.858 12H191.292L192.858 8.78333C192.625 8.66667 192.392 8.51667 192.192 8.31667C191.592 7.75 191.292 6.88333 191.292 6.05C191.292 5.23333 191.592 4.38333 192.192 3.81667C192.792 3.23333 193.642 3 194.425 3ZM196.875 6.98333V5.11667H194.508C194.258 5.13333 194.025 5.23333 193.858 5.41667C193.692 5.58333 193.592 5.81667 193.592 6.05C193.592 6.28333 193.692 6.5 193.842 6.66667C194.008 6.86667 194.242 6.98333 194.508 6.98333H196.875ZM9.4 19V28H7.13333V21.2667H3.43333V28H1.16667V19H9.4ZM19.4292 20.1833C20.1292 21.0667 20.4792 22.25 20.4792 23.5C20.4792 24.7333 20.1958 25.8833 19.4292 26.8167C18.6958 27.7333 17.5125 28.25 16.3292 28.25C15.4625 28.25 14.6625 28.05 14.0125 27.65V32H11.7292V19H13.7292V19.5667C14.4125 19.05 15.2958 18.75 16.2125 18.75C17.4625 18.75 18.6625 19.2333 19.4292 20.1833ZM17.6292 25.4333C17.9458 24.9667 18.0792 24.2667 18.0792 23.5C18.0792 22.7333 17.9125 22.0333 17.5958 21.5667C17.2125 20.9833 16.6292 20.7667 15.8792 20.7667C15.2625 20.7667 14.7292 20.9667 14.3625 21.4C13.9292 21.9 13.7292 22.6833 13.7292 23.5C13.7292 24.3167 13.9292 25.1167 14.3625 25.6C14.7625 26.0333 15.3125 26.2333 15.9625 26.2333C16.5958 26.2333 17.2458 26.0167 17.6292 25.4333ZM30.6073 19V28H28.3073V22.5833L24.3073 28H22.3073V19H24.6073V24.2333L28.6073 19H30.6073ZM38.9146 19H41.1813V28H38.9146V24.4833H35.2146V28H32.9479V19H35.2146V22.2167H38.9146V19ZM50.9271 19V21H47.9771V28H45.7104V21H42.7604V19H50.9271ZM54.4604 24.1167C54.5271 24.5833 54.6604 25.0167 54.9271 25.3667C55.2938 25.8667 55.9104 26.1333 56.5604 26.1333C57.2271 26.1333 57.8271 25.8667 58.2104 25.3667C58.2771 25.2667 58.3104 25.1667 58.3771 25.0833L60.6271 26.0667C60.4771 26.3167 60.2938 26.5667 60.0938 26.8C59.1938 27.8 57.8938 28.3167 56.5604 28.25C55.2271 28.1833 53.9438 27.75 53.1104 26.75C52.3438 25.8167 51.9771 24.6833 52.0104 23.5C52.0438 22.25 52.3604 21.15 53.1104 20.25C53.9438 19.2667 55.2271 18.75 56.5604 18.75C57.8938 18.75 59.1771 19.25 60.0104 20.25C60.7604 21.15 61.1104 22.3 61.1104 23.5C61.1104 23.7 61.0938 23.9167 61.0771 24.1167H54.4604ZM56.5604 20.8667C55.9104 20.8667 55.2938 21.1167 54.9271 21.6333C54.7604 21.85 54.6438 22.1 54.5604 22.3667H58.5604C58.4771 22.1 58.3604 21.85 58.2104 21.6333C57.8271 21.1167 57.2271 20.8667 56.5604 20.8667ZM70.6479 20.1833C71.3479 21.0667 71.6979 22.25 71.6979 23.5C71.6979 24.7333 71.4146 25.8833 70.6479 26.8167C69.9146 27.7333 68.7313 28.25 67.5479 28.25C66.6813 28.25 65.8813 28.05 65.2313 27.65V32H62.9479V19H64.9479V19.5667C65.6313 19.05 66.5146 18.75 67.4313 18.75C68.6813 18.75 69.8813 19.2333 70.6479 20.1833ZM68.8479 25.4333C69.1646 24.9667 69.2979 24.2667 69.2979 23.5C69.2979 22.7333 69.1313 22.0333 68.8146 21.5667C68.4313 20.9833 67.8479 20.7667 67.0979 20.7667C66.4813 20.7667 65.9479 20.9667 65.5813 21.4C65.1479 21.9 64.9479 22.6833 64.9479 23.5C64.9479 24.3167 65.1479 25.1167 65.5813 25.6C65.9813 26.0333 66.5313 26.2333 67.1813 26.2333C67.8146 26.2333 68.4646 26.0167 68.8479 25.4333ZM73.6927 15.75H75.9594V17.75H73.6927V15.75ZM73.6927 19H75.9594V28H73.6927V19ZM78.4635 19.0333L82.9802 19C83.7635 19 84.5135 19.1833 85.0635 19.6167C85.7302 20.1333 86.0969 20.8333 86.0969 21.7C86.0969 22.1167 86.0135 22.5167 85.8302 22.8833C85.7469 23.0167 85.6635 23.15 85.5635 23.2667C85.8635 23.5 86.1135 23.8 86.2802 24.15C86.4635 24.5 86.5635 24.9167 86.5635 25.3167C86.5635 26.1167 86.1635 26.9167 85.5302 27.4167C85.1135 27.7333 84.4135 28 83.9302 28H78.4635V19.0333ZM80.7635 20.7667V22.65H82.9802C83.2969 22.65 83.5135 22.55 83.6802 22.2833C83.7969 22.0833 83.8302 21.8833 83.8135 21.7C83.7969 21.5167 83.7969 21.3333 83.6802 21.1333C83.4969 20.85 83.3135 20.7667 82.9802 20.7667H80.7635ZM80.7635 24.3833V26.2667H83.4635C83.7469 26.2667 83.9802 26.15 84.1469 25.9C84.2635 25.7 84.2802 25.5 84.2802 25.3167C84.2802 25.15 84.2635 24.95 84.1469 24.75C83.9802 24.5 83.7969 24.3833 83.4635 24.3833H80.7635Z" fill="black"/>
<g id="hover">
<rect width="377" height="56" transform="translate(-40 -14)" fill="#E9FBE5"/>
<g id="printer-svgrepo-com (1) 1">
<path id="Vector" d="M22.1654 5.88437C21.4946 5.83334 20.7411 5.83343 19.9706 5.83351H8.02683C7.25629 5.83343 6.50277 5.83334 5.83203 5.88437V5.8335C5.83203 3.9005 7.39904 2.3335 9.33203 2.3335H18.6654C20.5984 2.3335 22.1654 3.9005 22.1654 5.8335V5.88437Z" fill="#A28FCE"/>
<path id="Vector_2" fill-rule="evenodd" clip-rule="evenodd" d="M12.7566 14C12.782 14 12.8077 14 12.8333 14H15.1667C15.1923 14 15.218 14 15.2434 14C16.2777 14 17.1688 13.9999 17.8824 14.0958C18.6472 14.1987 19.3803 14.4305 19.9749 15.0252C20.5695 15.6197 20.8013 16.3528 20.9042 17.1176C21.0001 17.8312 21.0001 18.7223 21 19.7566V19.9101C21.0001 20.9443 21.0001 21.8355 20.9042 22.5491C20.8013 23.3139 20.5695 24.047 19.9749 24.6415C19.3803 25.2362 18.6472 25.468 17.8824 25.5709C17.1688 25.6668 16.2777 25.6668 15.2434 25.6667H12.7566C11.7223 25.6668 10.8312 25.6668 10.1176 25.5709C9.35282 25.468 8.61974 25.2362 8.02513 24.6415C7.43053 24.047 7.19866 23.3139 7.09584 22.5491C6.9999 21.8355 6.99994 20.9443 7 19.9101C7 19.8847 7 19.859 7 19.8333C7 19.8077 7 19.782 7 19.7566C6.99994 18.7223 6.9999 17.8312 7.09584 17.1176C7.19866 16.3528 7.43053 15.6197 8.02513 15.0252C8.61974 14.4305 9.35282 14.1987 10.1176 14.0958C10.8312 13.9999 11.7223 14 12.7566 14Z" fill="#A28FCE"/>
<path id="Vector_3" d="M8.08858 7C7.05434 6.99994 6.16323 6.9999 5.44962 7.09584C4.68485 7.19866 3.95178 7.43053 3.35717 8.02513C2.76256 8.61974 2.53069 9.35282 2.42788 10.1176C2.33193 10.8312 2.33198 11.7223 2.33203 12.7566V15.2434C2.33198 16.2777 2.33193 17.1688 2.42788 17.8824C2.53069 18.6472 2.76256 19.3803 3.35717 19.9749C4.01959 20.6373 4.93021 20.8691 5.83593 20.9459C5.83198 20.6277 5.83201 20.3014 5.83205 19.9719C5.83205 18.9699 5.80448 17.9575 5.93828 16.9622C6.05839 16.0687 6.35103 15.048 7.19889 14.2002C8.04675 13.3523 9.06747 13.0597 9.96083 12.9396C10.7526 12.8331 11.7091 12.8332 12.6936 12.8333H15.304C16.2883 12.8332 17.2448 12.8331 18.0367 12.9396C18.93 13.0597 19.9507 13.3523 20.7985 14.2002C21.6464 15.048 21.939 16.0687 22.0592 16.9622C22.1929 17.9573 22.1654 18.9699 22.1654 19.9718C22.1654 20.3014 22.1655 20.6277 22.1615 20.9459C23.0672 20.8691 23.9778 20.6373 24.6402 19.9749C25.2349 19.3803 25.4667 18.6472 25.5696 17.8824C25.6655 17.1688 25.6655 16.2777 25.6654 15.2434V12.7566C25.6655 11.7223 25.6655 10.8312 25.5696 10.1176C25.4667 9.35282 25.2349 8.61974 24.6402 8.02514C24.0457 7.43053 23.3125 7.19866 22.5478 7.09584C21.8342 6.9999 20.9431 6.99994 19.9088 7H8.08858Z" fill="#A28FCE"/>
</g>
</g>
</g>
</g>
</g>
</g>
<defs>
<clipPath id="clip0_0_1">
<rect width="1440" height="1024" fill="white" transform="translate(-40 -140)"/>
</clipPath>
</defs>
</svg>
