<svg style="display: none;" xmlns="http://www.w3.org/2000/svg"><symbol id="accessory-icon" viewBox="0 0 65 60"><path d="M38.591 7.624L32.498 2l-6.092 5.624-14.222 13.128L17.5 25.5c2.007-1.704 3.094-4 6-4H42c2.773 0 3.493 2.296 5.5 4l5.313-4.748L38.59 7.624z" fill="#7080A5"/><path d="M43.686 2L40.59 4.857l14.222 13.128 2.997 2.767-5.809 4.748-5.5 4.5v4.5l17.5-13.748L43.686 2zM20.316 2l3.095 2.857L9.19 17.985l-2.997 2.767L12 25.5l5.5 4.5v4.5L.001 20.752 20.316 2z" fill="#7080A5"/><rect x="19.5" y="24" width="24.917" height="33" rx="5" fill="#7080A5"/></symbol><symbol id="all-arrow-icon" viewBox="0 0 8 14"><path d="M1 12.5L6.5 7 1 1.5" stroke="#000" stroke-width="2" stroke-linejoin="round"/></symbol><symbol id="antiseptic-icon" viewBox="0 0 65 60"><path d="M48.95 19.887v-.628c0-2.423-1.26-4.574-3.21-5.926V9.63h5.617V5.185H45.74v-.74C45.74 2 43.574 0 40.925 0c-2.648 0-4.814 2-4.814 4.444v.741H19.259c-5.585 0-10.157 4.072-10.42 9.167-4.155.986-7.235 4.472-7.235 8.61 0 4.902 4.32 8.89 9.63 8.89 5.31 0 9.63-3.988 9.63-8.89 0-4.126-3.063-7.604-7.2-8.6.25-2.648 2.663-4.732 5.595-4.732H36.11v3.703c-1.95 1.352-3.21 3.503-3.21 5.926v.628c-8.438 2.988-14.445 10.544-14.445 19.372 0 6.49 3.277 12.565 8.828 16.482V60h27.284v-4.26c5.55-3.916 8.827-9.991 8.827-16.48 0-8.829-6.007-16.385-14.445-19.373zm0 20.854H32.9v-4.445h16.05v4.445z" fill="#70C3C0"/></symbol><symbol id="arrow-down-icon" viewBox="0 0 11 12"><path d="M2 6.5l4 3 4-3" stroke="#8A8A8A" stroke-linecap="round" stroke-linejoin="round"/></symbol><symbol id="bags-icon" viewBox="0 0 61 60"><path d="M10.5 50h5V25a2.5 2.5 0 012.5-2.5h30v-5a2.5 2.5 0 00-2.5-2.5h-7.627c-.63-5.61-5.348-10-11.123-10-5.775 0-10.492 4.39-11.123 10H8a2.5 2.5 0 00-2.5 2.5V45a5 5 0 005 5zm16.25-40a6.26 6.26 0 016.125 5h-12.25a6.26 6.26 0 016.125-5z" fill="#83BC82"/><path d="M51 25.5H21a2.5 2.5 0 00-2.5 2.5v20a5 5 0 005 5h25a5 5 0 005-5V28a2.5 2.5 0 00-2.5-2.5zm-15 16c-6.892 0-11-4.108-11-11h3.5c0 4.135 3.365 7.5 7.5 7.5s7.5-3.365 7.5-7.5H47c0 6.892-4.108 11-11 11z" fill="#83BC82"/></symbol><symbol id="batteries-icon" viewBox="0 0 61 60"><path d="M54.343 36.01a2.865 2.865 0 00-.885-.218l.026-.062-8.72-3.78-.006-.002L30.99 25.98v7.12l10.596-1.983-.356 1.375-1.384 5.353-3.278.118-5.578.2v9.713l5.783 2.507 8.72 3.78.01-.022c.206.168.433.307.68.414 2.674 1.142 6.67-2.083 8.922-7.204 2.252-5.12 1.91-10.2-.763-11.342zm.061 11.04c-1.014 2.304-2.716 3.794-3.806 3.33-1.09-.466-1.15-2.71-.135-5.014 1.015-2.305 2.717-3.795 3.806-3.33 1.09.465 1.15 2.709.136 5.013zM20.036 4.103c-5.618 0-10.172 2.344-10.172 5.234 0 .084.004.168.011.253v10.777c-1.489 1.305-2.912 3.289-3.954 5.693-2.164 4.99-1.883 9.947.602 11.203l-.002.005.146.064 3.45 1.495V52.276h.006c.165 2.779 4.599 5.008 10.038 5.008 5.44 0 9.876-2.23 10.04-5.008h.005V9.8h-.04c.027-.154.042-.308.042-.465 0-2.892-4.555-5.232-10.172-5.232zm0 .758c2.527 0 4.577.954 4.577 2.13s-2.05 2.13-4.577 2.13c-2.528 0-4.577-.954-4.577-2.13s2.05-2.13 4.577-2.13zm-5.447 30.864l-1.39-1.46 4.311-1.506-6.89-10.206 6.864-1.078 6.643 13.93-2.797 1.385 6.052 12.375-12.793-13.442v.002z" fill="#596B79"/></symbol><symbol id="battery-icon" viewBox="0 0 65 60"><g clip-path="url(#clip0_82_9569)"><path d="M5.619 46.013H52.49c3.103 0 5.62-2.323 5.62-5.188v-2.27h4.081c1.55 0 2.809-1.16 2.809-2.592V23.937c0-1.43-1.26-2.593-2.809-2.593H58.11v-2.169c0-2.864-2.514-5.188-5.619-5.188H5.62C2.519 13.987 0 16.31 0 19.175v21.65c-.001 2.865 2.517 5.188 5.619 5.188zm11.893-19.545h4.69c1.617-3.782 5.65-6.473 10.372-6.473h2.279c1.737 0 3.151 1.244 3.29 2.816h5.42c1.376 0 2.488 1.029 2.488 2.295 0 1.273-1.112 2.299-2.487 2.299h-5.395v5.018h5.395c1.375 0 2.487 1.027 2.487 2.294 0 1.268-1.112 2.294-2.487 2.294h-5.395v.252c0 1.694-1.485 3.064-3.317 3.064h-2.278c-4.918 0-9.088-2.932-10.566-6.972H17.51c-2.059 0-3.73-1.543-3.73-3.444 0-1.902 1.671-3.443 3.73-3.443z" fill="#7DB7A6"/></g></symbol><symbol id="burger-icon" viewBox="0 0 24 16"><path d="M1.75 7.696h21M1.75 1h21m-21 14h21" stroke="#000" stroke-width="2" stroke-linecap="round"/></symbol><symbol id="cable-icon" viewBox="0 0 61 60"><path d="M57.892 41.778h-8.045c-.07 0-.138.018-.207.023a2.727 2.727 0 00-2.667-2.126h-14.38c-1.507 0-2.8 1.175-2.8 2.683v4.048H13.445c-3.66 0-6.636-2.94-6.636-6.599 0-3.66 2.977-6.618 6.635-6.618l27.388.024c7.139 0 12.947-5.826 12.947-12.964 0-7.139-5.808-12.964-12.947-12.964h-9.358v-4.2c0-1.507-1.154-2.741-2.661-2.741h-14.38a2.727 2.727 0 00-2.667 2.126c-.069-.005-.137-.023-.207-.023H3.515C2.008 2.447.767 3.705.767 5.213v10.301c0 1.508 1.24 2.708 2.748 2.708h8.045c.07 0 .138-.018.207-.023a2.727 2.727 0 002.667 2.126h14.38c1.507 0 2.66-1.175 2.66-2.683v-4.048h9.359c3.66 0 6.637 3 6.637 6.66 0 3.659-2.978 6.647-6.635 6.647l-27.389-.008C6.308 26.893.5 32.666.5 39.804c0 7.139 5.808 12.911 12.946 12.911h16.346v4.2c0 1.507 1.294 2.741 2.801 2.741h14.38a2.727 2.727 0 002.667-2.126c.069.005.137.023.207.023h8.044c1.508 0 2.609-1.258 2.609-2.766V44.486c0-1.508-1.1-2.708-2.608-2.708zM9.6 15.067H4.553v-3.155H9.6v3.155zm0-6.31H4.553V5.602H9.6v3.155zm47.113 45.64h-5.048v-3.154h5.048v3.155zm0-6.309h-5.048v-3.155h5.048v3.155z" fill="#7FAA3E"/></symbol><symbol id="card-icon" viewBox="0 0 20 20"><path d="M2.917 8.334h2.5v-2.5h-2.5v2.5zM2.917 14.166h2.5v-2.5h-2.5v2.5zM8.75 8.334h2.5v-2.5h-2.5v2.5zM8.75 14.166h2.5v-2.5h-2.5v2.5zM14.583 8.334h2.5v-2.5h-2.5v2.5zM14.583 14.166h2.5v-2.5h-2.5v2.5z" stroke="#22BC3E" stroke-width="1.5" stroke-linecap="round" stroke-linejoin="round"/></symbol><symbol id="cart-icon-small" viewBox="0 0 28 28"><path d="M8.391 5.25h1.818c.812 0 1.218 0 1.523.22.306.22.434.605.69 1.375l.636 1.905" stroke="#000" stroke-width="1.5" stroke-linecap="round"/><path d="M24.724 20.416H13.7c-.17 0-.255 0-.32-.007a1.167 1.167 0 01-1.011-1.403c.013-.063.04-.144.094-.306.06-.18.09-.27.123-.349a2.333 2.333 0 011.982-1.428c.086-.006.18-.006.37-.006h6.286" stroke="#000" stroke-width="1.5" stroke-linecap="round" stroke-linejoin="round"/><path d="M20.85 16.917H17.3c-1.492 0-2.238 0-2.823-.386-.584-.385-.878-1.07-1.466-2.443l-.197-.46c-.944-2.203-1.416-3.305-.898-4.091.519-.787 1.718-.787 4.115-.787h6.161c2.682 0 4.023 0 4.53.872.505.871-.16 2.036-1.491 4.364l-.33.58c-.657 1.146-.984 1.72-1.527 2.035-.544.316-1.204.316-2.526.316z" stroke="#000" stroke-width="1.5" stroke-linecap="round"/><path d="M24.141 24.5a1.167 1.167 0 100-2.333 1.167 1.167 0 000 2.333zM14.808 24.5a1.167 1.167 0 100-2.333 1.167 1.167 0 000 2.333z" fill="#000"/><path d="M19 11v4M17 13h4" stroke="#000" stroke-width="1.5" stroke-linecap="round"/></symbol><symbol id="cart-white-icon" viewBox="0 0 28 28"><path d="M8.39 5.25h1.819c.812 0 1.217 0 1.523.22.305.22.434.605.69 1.375l.635 1.905" stroke="#fff" stroke-width="1.5" stroke-linecap="round"/><path d="M24.724 20.416H13.7c-.17 0-.255 0-.32-.007a1.167 1.167 0 01-1.011-1.403c.013-.063.04-.144.094-.306.06-.18.09-.27.123-.349a2.333 2.333 0 011.982-1.428c.086-.006.18-.006.37-.006h6.286" stroke="#fff" stroke-width="1.5" stroke-linecap="round" stroke-linejoin="round"/><path d="M20.85 16.917H17.3c-1.492 0-2.238 0-2.823-.386-.584-.385-.878-1.07-1.466-2.443l-.197-.46c-.944-2.203-1.416-3.305-.898-4.091.519-.787 1.718-.787 4.115-.787h6.161c2.682 0 4.023 0 4.53.872.505.871-.16 2.036-1.491 4.364l-.33.58c-.657 1.146-.984 1.72-1.527 2.035-.544.316-1.204.316-2.526.316z" stroke="#fff" stroke-width="1.5" stroke-linecap="round"/><path d="M24.141 24.5a1.167 1.167 0 100-2.333 1.167 1.167 0 000 2.333zM14.807 24.5a1.167 1.167 0 100-2.334 1.167 1.167 0 000 2.334z" fill="#fff"/><path d="M19 11v4M17 13h4" stroke="#fff" stroke-width="1.5" stroke-linecap="round"/></symbol><symbol id="cart" viewBox="0 0 42 44"><path d="M6.765 8.563h2.678c1.196 0 1.794 0 2.244.338.45.338.639.93 1.017 2.112l.935 2.925" stroke="#000" stroke-width="2" stroke-linecap="round"/><path d="M30.825 31.854h-16.24c-.25 0-.376 0-.471-.011-1.01-.118-1.702-1.119-1.49-2.155.02-.097.06-.222.14-.47.088-.276.132-.414.18-.536.5-1.246 1.628-2.094 2.92-2.193.126-.01.265-.01.544-.01h9.26" stroke="#000" stroke-width="2" stroke-linecap="round" stroke-linejoin="round"/><path d="M25.117 26.48H19.89c-2.198 0-3.297 0-4.158-.593-.86-.591-1.294-1.645-2.16-3.751l-.29-.706c-1.391-3.384-2.087-5.076-1.323-6.284.764-1.209 2.53-1.209 6.062-1.209h9.075c3.951 0 5.927 0 6.672 1.34.745 1.338-.235 3.126-2.196 6.702l-.487.89c-.966 1.761-1.448 2.642-2.248 3.126-.8.484-1.774.484-3.72.484z" stroke="#000" stroke-width="2" stroke-linecap="round"/><path d="M29.965 38.125c.95 0 1.719-.802 1.719-1.792s-.77-1.791-1.719-1.791c-.949 0-1.718.802-1.718 1.791 0 .99.769 1.792 1.718 1.792zM16.217 38.125c.949 0 1.718-.802 1.718-1.792s-.769-1.791-1.718-1.791c-.95 0-1.719.802-1.719 1.791 0 .99.77 1.792 1.719 1.792z" fill="#000"/></symbol><symbol id="case-icon" viewBox="0 0 65 60"><path fill-rule="evenodd" clip-rule="evenodd" d="M7.5 2.553C7.5 1.42 8.42.5 9.553.5h24.638c1.134 0 2.054.92 2.054 2.053v54.894c0 1.134-.92 2.053-2.053 2.053H9.552A2.053 2.053 0 017.5 57.447V2.553zm32.257-.5A3.043 3.043 0 0039.004.5H56.15c1.134 0 2.053.92 2.053 2.053v54.894c0 1.134-.92 2.053-2.053 2.053H39.004c.387-.425.656-.96.753-1.553H53.98a3.053 3.053 0 003.053-3.053V5.106a3.053 3.053 0 00-3.053-3.053H39.757zm-29.032 0c-.981 0-1.777.796-1.777 1.777v9.574c0 .981.796 1.777 1.777 1.777H19.8c.981 0 1.777-.796 1.777-1.777V3.83c0-.981-.796-1.777-1.777-1.777h-9.075zm1.776 9.575V5.606h5.522v6.022h-5.522zm27.297 38.808V5.606h13.68v48.788h-3.723v-.905a3.053 3.053 0 00-3.053-3.053h-6.904zm.383 3.958v-.405h6.021v.405h-6.021z" fill="#88C6A4"/></symbol><symbol id="catalog-arrow-icon" viewBox="0 0 9 12"><path d="M1 11l6-5-6-5" stroke="#000" stroke-width="1.5" stroke-linecap="round"/></symbol><symbol id="catalog-icon" viewBox="0 0 26 26"><circle cx="5.75" cy="5.5" r="5" fill="#fff"/><circle opacity=".6" cx="20.75" cy="5.5" r="5" fill="#fff"/><circle opacity=".6" cx="5.75" cy="20.5" r="5" fill="#fff"/><circle cx="20.75" cy="20.5" r="5" fill="#fff"/></symbol><symbol id="charge-icon" viewBox="0 0 61 60"><g clip-path="url(#clip0_82_9545)"><path d="M31.843 5.037c-6.93-.372-13.526 2.06-18.55 6.828C8.268 16.634 5.5 23.075 5.5 30.001c0 7.872 3.776 15.378 10.101 20.078a2.5 2.5 0 102.984-4.014c-5.139-3.816-8.085-9.671-8.085-16.064 0-5.541 2.214-10.695 6.235-14.509 4.019-3.812 9.28-5.74 14.846-5.462 10.067.529 18.363 8.828 18.89 18.891.467 8.883-5.066 17.107-13.453 19.996a2.947 2.947 0 01-2.696-.406A3.11 3.11 0 0133 45.952v-5.14c2.904-1.036 5-3.81 5-7.06V28.82v-7.516a2.5 2.5 0 00-5 0v3.699h-5v-3.7a2.5 2.5 0 00-5 0v12.449c0 3.248 2.096 6.023 5 7.06v5.142a8.158 8.158 0 003.42 6.63 7.932 7.932 0 004.624 1.502c.87 0 1.746-.145 2.602-.441 10.485-3.613 17.4-13.886 16.818-24.984C54.806 16.074 44.43 5.697 31.843 5.037z" fill="#5B66E0"/></g></symbol><symbol id="checkbox--checked" viewBox="0 0 16 16"><g clip-path="url(#clip0_82_9886)"><rect width="16" height="16" rx="2.667" fill="#4FD284"/><path d="M4 7.876l3.077 3.457L12 4.666" stroke="#fff" stroke-linecap="round"/></g></symbol><symbol id="checkbox" viewBox="0 0 16 16"><rect x=".333" y=".333" width="15.333" height="15.333" rx="2.333" stroke="#8A8A8A" stroke-width=".667"/></symbol><symbol id="cleaner-icon" viewBox="0 0 61 60"><g clip-path="url(#clip0_82_9562)" fill="#74BC82"><path d="M44.562 24.375c-1.5 0-2.812 1.313-2.812 2.813v-1.875c0-1.5-1.313-2.813-2.813-2.813-1.5 0-2.812 1.313-2.812 2.813v-1.875c0-1.5-1.313-2.813-2.813-2.813-1.5 0-2.812 1.313-2.812 2.813v1.875c0-1.5-1.313-2.813-2.813-2.813-1.5 0-2.812 1.313-2.812 2.813V43.874l-4.688-4.688c-1.125-1.124-2.812-1.312-3.937-.374-1.5 1.124-1.688 3.374-.375 4.687l12.75 12.75h15c2.437-6.188 3.75-12.75 3.75-19.5v-9.563c0-1.5-1.313-2.812-2.813-2.812z"/><path d="M58.625 30.375c-1.125-2.25-1.5-4.875-.75-7.5.562-2.063.75-4.313.375-6.563-.938-6.187-6-11.25-12.188-12.375-3.375-.562-6.75 0-9.562 1.5-2.813 1.5-6 1.875-9 .75-2.25-.75-4.688-.937-7.313-.562-6 1.312-10.875 6.188-12 12.188V18c-.937 5.438-2.812 10.875-5.812 15.75-1.688 3-2.438 6.563-1.688 10.125 1.125 6 5.813 10.875 11.813 12 .937.188 2.062.375 3 .375 2.25 0 4.5-.563 6.375-1.5l-8.813-8.813c-1.312-1.312-2.062-3.374-1.875-5.25.188-2.062 1.125-3.75 2.813-4.874 2.062-1.5 4.875-1.688 7.125-.376V25.5c0-3.563 3-6.563 6.562-6.563h.938c1.125-1.125 2.812-1.875 4.687-1.875 1.875 0 3.563.75 4.688 1.875 2.062-.375 4.312.375 5.625 1.875h.937c3.563 0 6.563 3 6.563 6.563v9.563c0 5.25-.75 10.312-2.063 15.374 2.625-.562 4.875-1.874 6.938-3.75a14.89 14.89 0 004.687-10.874c-.187-2.626-.75-5.063-2.062-7.313z"/></g></symbol><symbol id="close-icon" viewBox="0 0 16 16"><path d="M1 1l7 6.696M15 1L8 7.696M1 15l7-7.304M15 15L8 7.696" stroke="#000" stroke-width="2" stroke-linecap="round"/></symbol><symbol id="cross-black-icon" viewBox="0 0 8 8"><path d="M1.083 1.083L4 3.873m2.916-2.79L4 3.873M1.083 6.917L4 3.873m2.916 3.044L4 3.873" stroke="#000" stroke-linecap="round"/></symbol><symbol id="cross-icon" viewBox="0 0 8 8"><path d="M1.083 1.083L4 3.873m2.916-2.79L4 3.873M1.083 6.917L4 3.873m2.916 3.044L4 3.873" stroke="#8A8A8A" stroke-linecap="round"/></symbol><symbol id="cross-white-icon" viewBox="0 0 8 8"><path d="M1.083 1.083L4 3.873m2.916-2.79L4 3.873M1.083 6.917L4 3.873m2.916 3.044L4 3.873" stroke="#FFF" stroke-linecap="round"/></symbol><symbol id="decore-icon" viewBox="0 0 65 62"><g clip-path="url(#clip0_82_9580)" fill="#C87A7A"><path d="M17.138 27.034c0 6.555 3.659 12.217 8.92 14.81-1.765-3.9-2.67-9.373-2.67-14.81 0-5.438.905-10.91 2.67-14.811-5.262 2.593-8.92 8.255-8.92 14.81zM27.626 27.034c0 10.768 3.416 16.32 4.874 16.32 1.457 0 4.873-5.552 4.873-16.32 0-10.769-3.416-16.322-4.873-16.322-1.458 0-4.874 5.553-4.874 16.322zM47.863 27.034c0-6.556-3.659-12.218-8.92-14.811 1.765 3.9 2.669 9.373 2.669 14.81 0 5.438-.904 10.91-2.669 14.811 5.261-2.593 8.92-8.255 8.92-14.81zM41.612 2.021C41.612.905 40.663 0 39.492 0H25.509c-1.17 0-2.12.905-2.12 2.021v2.476h18.224V2.021zM23.389 52.045c0 1.117.948 2.022 2.119 2.022h1.549a5.1 5.1 0 00-.172 1.314v4.598c0 1.116.949 2.021 2.12 2.021 1.17 0 2.118-.905 2.118-2.021V55.38c0-.725.618-1.314 1.378-1.314.759 0 1.377.59 1.377 1.314v4.598c0 1.116.949 2.021 2.119 2.021 1.17 0 2.119-.905 2.119-2.021V55.38a5.1 5.1 0 00-.172-1.314h1.55c1.17 0 2.118-.905 2.118-2.022V49.57H23.39v2.475z"/><path d="M12.9 27.033c0-8.96 5.598-16.586 13.351-19.302h-3.403c-4.206.954-8.07 2.531-11.327 4.667-5.875 3.852-9.11 9.05-9.11 14.635 0 5.585 3.235 10.783 9.11 14.636 3.256 2.135 7.121 3.713 11.327 4.666h3.403C18.498 43.62 12.9 35.993 12.9 27.033zM53.478 12.398c-3.256-2.135-7.121-3.713-11.327-4.667h-3.403C46.502 10.447 52.1 18.074 52.1 27.034S46.502 43.62 38.748 46.336h3.403c4.206-.954 8.071-2.532 11.327-4.667 5.876-3.853 9.111-9.05 9.111-14.635 0-5.586-3.235-10.783-9.11-14.636z"/></g></symbol><symbol id="Facebook" viewBox="0 0 16 26"><path d="M9.14 14.953V25H4.695V14.953H1v-4.074h3.694V9.396C4.694 3.893 6.91 1 11.594 1c1.437 0 1.796.24 2.583.435v4.03c-.88-.16-1.128-.249-2.043-.249-1.087 0-1.668.32-2.198.95-.53.63-.795 1.722-.795 3.284v1.438h5.036l-1.35 4.073H9.14v-.008z" stroke="#22BC3E" stroke-width="2"/></symbol><symbol id="features-label-icon" viewBox="0 0 49 48"><path d="M47.522 27.879L36.716 17.017l.009.009a13.56 13.56 0 00.478-3.526C37.203 6.045 31.19 0 23.772 0c-1.241 0-2.437.183-3.577.5a2.974 2.974 0 00-1.647-.5H3.624A2.993 2.993 0 00.64 3v15c0 .796.315 1.558.874 2.121l26.863 27a2.967 2.967 0 002.11.879c.764 0 1.529-.293 2.11-.879l14.925-15a3.009 3.009 0 000-4.242zM23.772 1.501c6.594 0 11.939 5.372 11.939 12 0 .752-.088 1.566-.22 2.286l-1.321-1.328-.018-.018c.028-.3.066-.654.066-.94 0-5.798-4.677-10.5-10.446-10.5a10.544 10.544 0 00-2.738.376 10.45 10.45 0 00-6.214 4.731c-.257.43-.492.874-.687 1.341a10.513 10.513 0 00-.808 4.052c0 .463.098 1.363.098 1.363s-.549.136-.844.136c-.226 0-.444-.03-.655-.078-.029-.006-.025-.006 0 0a12.225 12.225 0 01-.091-1.421 12 12 0 011.563-5.922 11.975 11.975 0 016.447-5.399 11.801 11.801 0 013.929-.68zM32.7 12.98l-8.412-8.454c4.532.26 8.152 3.9 8.412 8.455zM15.563 12c0 .743-.276 1.414-.724 1.934-.006-.144-.022-.286-.022-.433 0-.976.16-1.913.445-2.793.188.393.301.828.301 1.292zm-5.223 1.5c0 .158.017.313.023.47A2.948 2.948 0 019.594 12a3 3 0 011.348-2.505 13.55 13.55 0 00-.602 4.005zm36.126 17.56l-14.924 15c-.282.284-.656.44-1.055.44-.398 0-.773-.156-1.055-.44l-26.863-27A1.518 1.518 0 012.132 18V3c0-.828.67-1.5 1.492-1.5h14.012a13.505 13.505 0 00-5.924 6.086A4.494 4.494 0 008.102 12c0 2.485 2.005 4.5 4.477 4.5 2.472 0 4.477-2.015 4.477-4.5a4.49 4.49 0 00-1.077-2.922 8.954 8.954 0 016.306-4.443l24.181 24.304c.282.284.438.66.438 1.061 0 .4-.156.777-.438 1.06z" fill="#22BC3E"/><path d="M38.04 28.41a2.233 2.233 0 00-3.166 0l-5.958 5.988c-.872.877-.904 2.337-.03 3.214.87.878 2.318.85 3.191-.027l5.964-5.992h-.002a2.261 2.261 0 00.001-3.183zm-1.056 2.122l-5.94 5.97c-.291.293-.814.343-1.104.05-.292-.294-.253-.806.038-1.099l5.952-5.982a.743.743 0 011.055 0 .753.753 0 010 1.061zM32.07 25.593a2.261 2.261 0 00.001-3.183 2.233 2.233 0 00-3.166 0l-5.957 5.988c-.873.877-.905 2.337-.032 3.214.872.878 2.32.85 3.193-.027l5.963-5.992h-.001zm-1.054-1.06l-5.94 5.97c-.292.293-.815.342-1.105.049-.291-.293-.253-.806.039-1.099l5.951-5.982a.743.743 0 011.055 0 .753.753 0 010 1.061zM26.098 19.59a2.261 2.261 0 000-3.183 2.233 2.233 0 00-3.165 0l-5.958 5.988c-.872.877-.904 2.337-.031 3.214.871.878 2.319.85 3.192-.027l5.963-5.992h-.001zm-1.055-1.06l-5.94 5.97c-.292.293-.815.342-1.104.049-.292-.293-.254-.806.038-1.099l5.951-5.982a.743.743 0 011.056 0 .753.753 0 01-.001 1.061z" fill="#22BC3E"/></symbol><symbol id="features-location-icon" viewBox="0 0 49 48"><path d="M24.518 0C14.628 0 6.609 8.059 6.609 18c0 4.259 1.867 8.003 3.934 11.25L23.3 47.367a1.49 1.49 0 002.436 0L38.493 29.25c1.975-2.672 3.934-6.991 3.934-11.25 0-9.941-8.018-18-17.909-18zm12.004 29.25h-.008l-11.996 16.5-11.997-16.5h-.007C10.69 26.602 8.102 22.35 8.102 18c0-9.113 7.35-16.5 16.416-16.5S40.934 8.887 40.934 18c0 4.35-2.775 8.836-4.412 11.25z" fill="#22BC3E"/><path d="M24.518 10.5c-4.121 0-7.462 3.358-7.462 7.5 0 4.142 3.34 7.5 7.462 7.5 4.121 0 7.462-3.358 7.462-7.5 0-4.142-3.34-7.5-7.462-7.5zm0 13.5c-3.297 0-5.97-2.686-5.97-6 0-3.313 2.673-6 5.97-6 3.297 0 5.97 2.687 5.97 6 0 3.314-2.673 6-5.97 6z" fill="#22BC3E"/><path d="M24.518 7.5c-5.77 0-10.447 4.701-10.447 10.5s4.677 10.5 10.447 10.5S34.965 23.799 34.965 18 30.288 7.5 24.518 7.5zm0 19.5c-4.945 0-8.954-4.03-8.954-9s4.009-9 8.954-9 8.954 4.03 8.954 9-4.009 9-8.954 9z" fill="#22BC3E"/></symbol><symbol id="features-map-icon" viewBox="0 0 49 48"><path d="M47.175.58a2.975 2.975 0 00-2.662-.44L31.258 4.346 18.745.154a2.964 2.964 0 00-1.975.031L2.592 5.435A3 3 0 00.64 8.25V45c0 .956.453 1.855 1.22 2.42a2.976 2.976 0 002.663.44l13.28-4.215L31.08 47.86a2.96 2.96 0 001.843-.014l13.431-4.5a3 3 0 002.041-2.846V3c0-.955-.453-1.855-1.22-2.42zm-2.214.99a1.496 1.496 0 011.333.22c.381.281.61.734.61 1.21v18.814c-.175-.026-.356-.062-.547-.099-.87-.174-1.417-.39-2.074-1.159-.776-.891-.325-2.332-1.18-3.085-.33-.284-.646-.378-.965-.378-.615-.001-1.24.35-1.996.378-1.244.055-2.099.567-3.13.567-.319 0-.654-.049-1.024-.175-1.001-.345-1.385-1.133-2.371-1.546a4.952 4.952 0 00-.89-.28v-4.644c.84.3 1.59.58 2.667.683.59.06 1.067.285 1.545.285.269 0 .538-.072.827-.285.894-.67 1.663-1.891 1.188-3.08-.31-.784-1.053-.49-1.489-1.16-.467-.737-.246-1.412-.586-2.308.212-.657.573-1.119.773-1.638l7.309-2.32zm-9.476 4.493c.082.22.109.44.14.72.057.487.136 1.156.58 1.859.45.69 1.041.948 1.397 1.085.01.397-.373.873-.708 1.13a4.511 4.511 0 01-.377-.084 6.455 6.455 0 00-.976-.189c-.861-.083-1.463-.298-2.223-.572a38.816 38.816 0 00-.593-.207V5.454l2.957-.938c-.078.172-.158.347-.224.55a1.51 1.51 0 00.027.998zm-4.251 9.848c-.406.008-.822.03-1.29.03-.153 0-.31-.004-.474-.01a6.143 6.143 0 00-.259-.005c-.826 0-1.458.16-2.164.16a4.15 4.15 0 01-1.132-.155c-.963-.269-1.762-.141-2.372-1.15-.709-1.196-.673-2.638 0-3.863.704-1.268 1.766-.98 2.966-1.154.22-.03.429-.045.629-.045 1.49 0 2.473.77 4.095 1.194v4.998zm-7.132 17.252c-.395.967-1.126 1.169-1.944 1.169a6.86 6.86 0 01-.427-.015c-.88-.052-1.275-.68-2.075-1.154-.761-.452-1.288-1.07-1.853-1.556v-9.735c.557.756.776 1.527 1.553 2.033.301.196.588.265.869.265.672 0 1.309-.397 2.02-.397.215 0 .438.037.67.133 1.192.499 2.205.808 2.664 2.323.3.975.309 1.722 0 2.69-.305.979-1.196.927-1.477 1.927-.25.854.321 1.513 0 2.317zM2.132 14.367c.653-.005 1.285-.05 2.118-.092 1.041-.058 1.788-.612 2.641-.612.287 0 .585.062.911.226.998.49 1.184 1.555 2.079 2.308 1.35 1.139 2.422.969 3.852 1.933 1.066.719 1.804 1.318 2.577 2.09v10.657c-.071-.01-.135-.03-.21-.032-.277-.009-.529-.042-.764-.042-.362 0-.687.077-1.013.432-.562.608-.078 1.64-.59 2.309-.37.496-.788.65-1.242.65-.442 0-.919-.144-1.425-.264-1.018-.233-1.355-1.294-2.368-1.541-.38-.092-.684-.165-.992-.165-.245 0-.493.046-.786.165-1.26.515-1.47 1.941-2.08 3.472-.498 1.268-.003 2.617-.886 3.462-.429.412-.84.539-1.285.539-.172 0-.351-.02-.536-.048l-.001-25.447zm.977-7.524l13.2-4.889v16.233a20.104 20.104 0 00-1.744-1.302c-.807-.545-1.506-.792-2.123-1.011-.624-.22-1.074-.38-1.603-.827-.223-.188-.4-.455-.605-.766-.378-.572-.849-1.286-1.778-1.741a3.47 3.47 0 00-1.565-.378c-.674 0-1.234.193-1.727.363-.364.125-.68.234-.996.251l-.602.034c-.547.03-.988.054-1.434.057V8.25c0-.625.392-1.191.977-1.407zm.965 39.587a1.486 1.486 0 01-1.332-.22 1.507 1.507 0 01-.61-1.21v-3.678c.175.021.352.041.537.041.888 0 1.646-.312 2.315-.953.937-.896 1.013-2.038 1.07-2.87.027-.421.054-.818.175-1.125.134-.337.252-.675.365-1 .36-1.031.552-1.497.887-1.635.133-.054.192-.054.224-.054.135 0 .37.057.643.123.11.027.295.206.492.395.413.396.979.94 1.893 1.15l.27.066c.446.11.95.236 1.486.236.981 0 1.824-.432 2.436-1.25.533-.698.557-1.481.574-2l.005-.135.127.009c.136.01.277.02.425.024.088.003.17.02.254.05v10.152L4.074 46.43zm14.178-4.215l-.45-.142v-8.435c.315.28.667.563 1.097.818.18.106.35.24.53.382.49.386 1.16.914 2.215.977a7.9 7.9 0 00.514.017c1.636 0 2.755-.706 3.325-2.099.334-.837.196-1.557.104-2.033-.034-.173-.07-.37-.052-.433l.013-.038c.022-.03.137-.12.22-.187.355-.28.948-.751 1.236-1.676.393-1.233.394-2.308 0-3.582-.628-2.074-2.085-2.674-3.256-3.156l-.258-.108a3.25 3.25 0 00-1.246-.247c-.577 0-1.07.147-1.463.265-.217.066-.442.132-.556.132-.015 0-.028-.005-.058-.024-.215-.14-.355-.369-.605-.795-.208-.357-.468-.8-.855-1.242-.324-.37-.62-.696-.905-.997V1.5c.161 0 .32.026.472.077L30.786 5.77l.448.15v3.424c-.377-.12-.731-.253-1.091-.398-.883-.357-1.797-.726-3.005-.726-.271 0-.551.019-.83.058a7.892 7.892 0 01-.67.06c-.977.059-2.451.149-3.397 1.849-.951 1.735-.942 3.736.02 5.363.818 1.352 1.963 1.567 2.721 1.71.189.036.367.07.535.116.508.141 1.009.21 1.531.21.425 0 .802-.044 1.166-.085.336-.038.654-.075.999-.075l.198.003c.185.009.362.012.534.012.31 0 .6-.01.878-.02.141-.005.276-.007.412-.01v28.925l-12.983-4.12zm27.63-.292L32.727 46.33V17.588c.101.033.202.067.312.112.264.11.469.284.751.524.414.35.928.787 1.715 1.057.505.173.997.257 1.508.257.713 0 1.328-.167 1.871-.314.446-.12.866-.234 1.325-.255.547-.02 1.02-.151 1.4-.257.185-.051.394-.11.504-.118.058.106.111.444.147.67.104.643.245 1.527.901 2.28.909 1.064 1.787 1.418 2.905 1.643l.078.015c.246.047.5.089.761.12V40.5c0 .647-.41 1.219-1.021 1.423z" fill="#22BC3E"/><path d="M41.908 29.491c-.505-.155-.983-.302-1.5-.302a2.39 2.39 0 00-1.346.407c-.471.313-.607.699-.638.966-.083.724.45 1.293 1.015 1.894.378.402.948 1.01.837 1.298-.071.193-.288.297-.73.475-.55.222-1.383.556-1.563 1.553-.101.554.024 1.063.362 1.47.476.573 1.337.888 2.428.888 1.111 0 2.205-.323 2.93-.867 1.234-.951 1.707-2.34 1.407-4.128-.3-1.823-1.391-3.081-3.202-3.654zm.895 6.586c-.455.342-1.253.564-2.03.564-.686 0-1.137-.174-1.282-.349-.025-.03-.069-.083-.04-.24.027-.149.142-.225.649-.428.533-.215 1.264-.509 1.572-1.337.442-1.165-.477-2.143-1.148-2.859-.178-.189-.426-.453-.549-.632.392-.208.839-.072 1.533.142 1.225.388 1.921 1.19 2.13 2.456.21 1.248-.05 2.078-.835 2.683z" fill="#22BC3E"/></symbol><symbol id="features-trust-icon" viewBox="0 0 49 48"><path d="M23.986 24.537a.73.73 0 001.044 0l4.314-4.38c.535-.544 1.074-1.329 1.074-2.157 0-1.657-1.323-3-2.955-3-.816 0-1.554.336-2.09.879l-.865.873-.866-.873A2.924 2.924 0 0021.553 15c-1.632 0-2.955 1.343-2.955 3 0 .828.527 1.602 1.062 2.144l4.326 4.393zM21.553 16.5c.409 0 .778.168 1.045.44l1.388 1.403a.73.73 0 001.044 0l1.388-1.404a1.46 1.46 0 011.045-.439A1.49 1.49 0 0128.94 18c0 .415-.355.807-.623 1.078l-3.809 3.867-3.809-3.867c-.268-.271-.623-.663-.623-1.078 0-.828.662-1.5 1.477-1.5z" fill="#22BC3E"/><path d="M39.281 0H9.734C8.087 0 6.779 1.36 6.779 3v42.75a2.25 2.25 0 001.414 2.098 2.196 2.196 0 002.439-.58L23.778 33.75s.291-.375.73-.375c.438 0 .73.377.73.377l13.145 13.515a2.2 2.2 0 002.438.581 2.251 2.251 0 001.415-2.098V3c0-1.611-1.338-3-2.955-3zm1.478 45.375c0 .586-.866 1.102-1.478.48L25.985 32.368s-.539-.682-1.477-.682c-.923 0-1.478.717-1.478.717S10.426 45.27 9.843 45.861c-.584.592-1.587.135-1.587-.483V9H40.76v36.375zm0-37.875H8.256V3c0-.828.662-1.5 1.478-1.5H39.28A1.49 1.49 0 0140.76 3v4.5z" fill="#22BC3E"/></symbol><symbol id="filter-green-icon" viewBox="0 0 22 22"><path d="M11.686 17.151h0c.155-.077.241-.12.303-.157a.526.526 0 00.048-.03.167.167 0 00.035-.055.548.548 0 00.006-.057c.004-.072.005-.169.005-.342v-3.986-.045c0-.178-.001-.377.046-.572h0c.04-.17.108-.333.2-.482m-.643 5.726l1.508-5.733-.462-.461.01-.01m-1.056 6.204l-.733.367s0 0 0 0c-.364.182-.592.295-.764.362a.937.937 0 01-.149.048.166.166 0 01-.083-.052.94.94 0 01-.023-.154 10.675 10.675 0 01-.018-.845v-4.36-.044m1.77 4.678l-1.77-4.678m2.413-1.049l.639.393-.64-.392s0 0 0 0zm0 0a2.393 2.393 0 01.4-.464.685.685 0 01.012-.012m0 0l4.632-4.632a5.53 5.53 0 00.186-.194.17.17 0 00.019-.043l.002-.037c.003-.047.003-.11.003-.226v-.683c0-.269-.001-.425-.01-.54a.663.663 0 00-.013-.093.165.165 0 00-.06-.061.662.662 0 00-.093-.012 7.614 7.614 0 00-.541-.01H5.132c-.269 0-.425 0-.54.01a.656.656 0 00-.093.012.166.166 0 00-.06.06.658.658 0 00-.013.093c-.01.115-.01.272-.01.541v.676a5.758 5.758 0 00.005.27c.004.014.01.029.018.043l.025.029c.033.035.078.081.162.165l-.525.525.525-.525 4.64 4.64s0 0 0 0l.033.032c.126.126.266.266.371.437m3.071-.477l-2.87.96a1.668 1.668 0 00-.2-.483m0 0l-.64.392.639-.392s0 0 0 0zm.245 1.048c0-.174 0-.372-.046-.566l.046.566zM4.441 6.124h0zM17.505 4.44s0 0 0 0h0z" stroke="#22BC3E" stroke-width="1.5" stroke-linecap="round" stroke-linejoin="round"/></symbol><symbol id="filter-icon" viewBox="0 0 22 22"><path d="M11.686 17.151h0c.155-.077.241-.12.303-.157a.526.526 0 00.048-.03.167.167 0 00.035-.055.548.548 0 00.006-.057c.004-.072.005-.169.005-.342v-3.986-.045c0-.178-.001-.377.046-.572h0c.04-.17.108-.333.2-.482m-.643 5.726l1.508-5.733-.462-.461.01-.01m-1.056 6.204l-.733.367s0 0 0 0c-.364.182-.592.295-.764.362a.937.937 0 01-.149.048.166.166 0 01-.083-.052.94.94 0 01-.023-.154 10.675 10.675 0 01-.018-.845v-4.36-.044m1.77 4.678l-1.77-4.678m2.413-1.049l.639.393-.64-.392s0 0 0 0zm0 0a2.393 2.393 0 01.4-.464.685.685 0 01.012-.012m0 0l4.632-4.632a5.53 5.53 0 00.186-.194.17.17 0 00.019-.043l.002-.037c.003-.047.003-.11.003-.226v-.683c0-.269-.001-.425-.01-.54a.663.663 0 00-.013-.093.165.165 0 00-.06-.061.662.662 0 00-.093-.012 7.614 7.614 0 00-.541-.01H5.132c-.269 0-.425 0-.54.01a.656.656 0 00-.093.012.166.166 0 00-.06.06.658.658 0 00-.013.093c-.01.115-.01.272-.01.541v.676a5.758 5.758 0 00.005.27c.004.014.01.029.018.043l.025.029c.033.035.078.081.162.165l-.525.525.525-.525 4.64 4.64s0 0 0 0l.033.032c.126.126.266.266.371.437m3.071-.477l-2.87.96a1.668 1.668 0 00-.2-.483m0 0l-.64.392.639-.392s0 0 0 0zm.245 1.048c0-.174 0-.372-.046-.566l.046.566zM4.441 6.124h0zM17.505 4.44s0 0 0 0h0z" stroke="#fff" stroke-width="1.5" stroke-linecap="round" stroke-linejoin="round"/></symbol><symbol id="glass-icon" viewBox="0 0 65 60"><path d="M48.393 0H16.607c-2.865 0-5.198 2.165-5.198 4.808V55.19c0 2.645 2.333 4.81 5.198 4.81h31.786c2.852 0 5.197-2.165 5.197-4.81V4.808C53.59 2.165 51.245 0 48.393 0zm1.945 47.555v2.033H14.65V8.214h35.688v39.34z" fill="#E19369"/><g clip-path="url(#clip0_82_9532)"><path fill-rule="evenodd" clip-rule="evenodd" d="M33.702 20.195l7 2.625A2 2 0 0142 24.693v5.363a9 9 0 01-4.975 8.05l-3.354 1.676a1.5 1.5 0 01-1.342 0l-3.354-1.677A9 9 0 0124 30.055v-5.362a2 2 0 011.298-1.873l7-2.625a2 2 0 011.404 0zM33 32a1 1 0 100 2 1 1 0 000-2zm0-7a1 1 0 00-.993.883L32 26v4a1 1 0 001.993.117L34 30v-4a1 1 0 00-1-1z" fill="#E19369"/></g></symbol><symbol id="headphones-icon" viewBox="0 0 61 60"><path d="M30.5 12.5A17.5 17.5 0 0013 30v2.5h5.2c1.675 0 2.5 0 3.15.325.575.3 1.025.75 1.325 1.325.325.625.325 1.475.325 3.15v10.4c0 1.675 0 2.5-.325 3.15-.3.575-.75 1.025-1.325 1.325-.625.325-1.475.325-3.15.325H16c-2.8 0-4.2 0-5.25-.55a5 5 0 01-2.2-2.175C8.05 48.75 8 47.475 8 45V30a22.5 22.5 0 0145 0v15c0 2.475-.025 3.75-.55 4.75a5 5 0 01-2.175 2.2c-1.075.55-2.475.55-5.275.55h-2.2c-1.675 0-2.5 0-3.15-.325a3 3 0 01-1.325-1.325C38 50.225 38 49.375 38 47.7V37.3c0-1.675 0-2.5.325-3.15.3-.575.75-1.025 1.325-1.325.625-.325 1.475-.325 3.15-.325H48V30a17.5 17.5 0 00-17.5-17.5z" fill="#9F7DA7"/></symbol><symbol id="home-icon" viewBox="0 0 15 14"><path d="M2.533 12.428v-5.01H.863l6.262-5.846 6.263 5.845h-1.67v5.01h-3.34V8.67H5.873v3.758h-3.34z" stroke="#8A8A8A" stroke-width="1.25" stroke-miterlimit="5" stroke-linecap="round" stroke-linejoin="round"/></symbol><symbol id="ink-icon" viewBox="0 0 25 60"><path fill-rule="evenodd" clip-rule="evenodd" d="M20.66 20.98c0 .36-.2.673-.493.837a12.688 12.688 0 014.442 9.676v22.422A6.092 6.092 0 0118.524 60H6.475a6.092 6.092 0 01-6.084-6.085V31.493c0-3.788 1.65-7.288 4.442-9.676a.957.957 0 01-.493-.837v-7.248c0-.529.429-.957.957-.957h2.394V7.149c0-.528.428-.957.957-.957h.473l.952-5.4A.958.958 0 0111.016 0h2.967c.465 0 .863.334.943.791l.952 5.401h.473c.53 0 .958.429.958.957v5.625h2.393c.529 0 .957.43.957.958v7.248zM13.933 6.192l-.754-4.277h-1.36l-.754 4.277h2.868z" fill="#7D7D7D"/></symbol><symbol id="Instagram" viewBox="0 0 26 26"><path d="M20.988 25H5.012A4.021 4.021 0 011 20.988V5.012A4.021 4.021 0 015.011 1h15.977A4.021 4.021 0 0125 5.011v15.977A4.009 4.009 0 0120.988 25z" stroke="#22BC3E" stroke-width="2"/><path d="M8.648 17.361a6.121 6.121 0 004.357 1.804c1.646 0 3.184-.64 4.356-1.804a6.121 6.121 0 001.804-4.356c0-1.646-.64-3.194-1.804-4.357a6.12 6.12 0 00-4.356-1.803 6.12 6.12 0 00-4.357 1.803 6.12 6.12 0 00-1.803 4.357 6.12 6.12 0 001.803 4.356zM20.365 6.642a1.183 1.183 0 100-2.365 1.183 1.183 0 000 2.365z" stroke="#22BC3E" stroke-width="2"/></symbol><symbol id="lamp-icon" viewBox="0 0 61 60"><g clip-path="url(#clip0_82_9574)" fill="#D6A965"><path d="M57.083 30.136H51.65c-.95-10.122-9.029-18.201-19.15-19.15V2a2 2 0 10-4 0v8.985c-10.123.95-18.202 9.03-19.152 19.151H3.918a2 2 0 000 4h53.165a2 2 0 100-4zM30.5 50.555a2 2 0 00-2 2V58a2 2 0 004 0v-5.445a2 2 0 00-2-2zM14.647 45.16l-3.85 3.85a2 2 0 002.828 2.83l3.85-3.851a2 2 0 00-2.828-2.829zM46.353 45.16a2 2 0 00-2.829 2.829l3.85 3.85a2 2 0 002.829-2.828l-3.85-3.85zM30.5 45.604c5.271 0 9.844-3.045 12.055-7.468H18.443c2.211 4.423 6.784 7.468 12.056 7.468z"/></g></symbol><symbol id="left-arrow" viewBox="0 0 11 16"><path d="M9.75 1l-8 7 8 7" stroke="#8A8A8A" stroke-width="2" stroke-linecap="round"/></symbol><symbol id="location-icon" viewBox="0 0 20 20"><path d="M10 2.292a5.404 5.404 0 00-3.83 1.594 5.455 5.455 0 00-1.587 3.848c0 1.729.448 2.986 2.168 5.093.799.909 1.5 1.9 2.089 2.957.623 1.27.55 2.132 1.16 2.132.61 0 .536-.862 1.16-2.132a17.055 17.055 0 012.088-2.957c1.72-2.107 2.168-3.365 2.168-5.093 0-1.442-.57-2.826-1.586-3.848A5.405 5.405 0 0010 2.29z" stroke="#8A8A8A" stroke-width="2"/><path d="M10 9.792a2.083 2.083 0 100-4.167 2.083 2.083 0 000 4.167z" stroke="#8A8A8A" stroke-width="2"/></symbol><symbol id="login" viewBox="0 0 41 40"><path d="M9.083 35c0-6.443 5.224-11.667 11.667-11.667S32.417 28.557 32.417 35m-5-23.333a6.667 6.667 0 11-13.334 0 6.667 6.667 0 0113.334 0z" stroke="#000" stroke-width="2" stroke-linecap="round" stroke-linejoin="round"/></symbol><symbol id="logo-mobile" viewBox="0 0 37 38"><path d="M19.001 19.751l-.082-.076c-4.074 3.725-10.632 3.732-14.714.008-.016.015-.033.023-.04.038C.073 23.498 0 37.222 0 37.222s14.878-.053 18.968-3.83c.017-.015.025-.03.041-.038-4.033-3.762-4.041-9.84-.008-13.603z" fill="#000"/><path d="M19.024 19.751l.076-.076c3.78 3.725 9.857 3.732 13.644.008.015.015.03.023.038.038 3.795 3.777 3.879 17.501 3.879 17.501S22.842 37.17 19.047 33.4c-.015-.015-.023-.03-.038-.037 3.742-3.77 3.757-9.849.015-13.61z" fill="#018BD4"/><path d="M19.032 19.593l.076.082c3.782-4.01 9.86-4.017 13.65-.008.015-.016.03-.025.038-.04C36.592 15.56 36.66.777 36.66.777S22.844.843 19.047 4.91c-.015.016-.023.032-.038.04 3.744 4.058 3.759 10.594.023 14.643z" fill="#E83A43"/><path d="M18.993 19.593l-.082.082c-4.074-4.01-10.64-4.017-14.714-.008-.016-.016-.033-.025-.041-.04C.066 15.56 0 .777 0 .777S14.878.843 18.968 4.91c.017.016.025.032.041.04-4.041 4.058-4.05 10.594-.016 14.643z" fill="#FFCC03"/></symbol><symbol id="logo" viewBox="0 0 170 48"><path d="M19.084 24.052L19.028 24c-2.786 2.547-7.271 2.552-10.063.005-.011.01-.022.016-.028.026C6.14 26.614 6.09 36 6.09 36s10.175-.036 12.972-2.62c.012-.01.017-.02.028-.025-2.758-2.573-2.763-6.73-.005-9.303z" fill="#000"/><path d="M19.1 24.052l.052-.052a6.652 6.652 0 009.33.005c.01.01.021.016.026.026C31.104 26.614 31.161 36 31.161 36s-9.45-.036-12.046-2.614c-.01-.01-.015-.021-.026-.026 2.56-2.578 2.57-6.735.01-9.308z" fill="#018BD4"/><path d="M19.105 23.944l.052.056c2.586-2.741 6.743-2.747 9.334-.005.011-.012.021-.017.026-.028 2.597-2.781 2.644-12.89 2.644-12.89s-9.45.045-12.046 2.825c-.01.012-.015.023-.026.028 2.56 2.776 2.57 7.245.016 10.014z" fill="#E83A43"/><path d="M19.078 23.944l-.056.056c-2.786-2.741-7.276-2.747-10.062-.005-.012-.012-.023-.017-.028-.028-2.798-2.781-2.843-12.89-2.843-12.89s10.175.045 12.972 2.825c.012.012.017.023.028.028-2.763 2.776-2.769 7.245-.01 10.014z" fill="#FFCC03"/><path d="M45.897 27.185c-.636-1.097-.784-2.414-.784-3.358 0-1.476.431-2.765 1.189-3.687.757-.922 1.846-1.465 3.145-1.465 1.151 0 2.177.307 3.029.702v-4.933l-.263-.06c-.715-.17-1.552-.538-3.324-.538-6.915.017-9.36 5.098-9.371 10.157.01 5.926 3.208 10.14 9.213 10.15 1.11 0 2.03-.164 3.787-.762v-4.977c-1.52.604-2.388.714-2.966.714-1.893 0-3.019-.845-3.655-1.943zM62.424 28.75c-.224.715-.86 1.329-1.543 1.329h-.011c-.69.005-1.27-.625-1.533-1.329-.208-.563-.35-1.57-.35-2.358s.12-1.728.35-2.527c.208-.726.843-1.334 1.533-1.329.69-.005 1.34.608 1.554 1.329.214.715.312 1.649.312 2.443 0 .788-.12 1.834-.312 2.442zm5.88-2.442c-.006-4.903-2.847-7.835-7.429-7.847-4.587.017-7.423 2.944-7.428 7.847.005 4.908 2.846 7.834 7.428 7.846 4.582-.017 7.418-2.944 7.429-7.847zM85.64 28.75c-.251.704-.859 1.329-1.543 1.329h-.01c-.69.005-1.287-.62-1.533-1.329-.213-.624-.35-1.654-.35-2.442 0-.794.137-1.773.35-2.443.23-.715.843-1.334 1.532-1.329.69-.005 1.303.62 1.555 1.329.246.692.328 1.649.328 2.443.005.788-.137 1.919-.328 2.442zm5.878-2.442c-.006-4.903-2.846-7.835-7.432-7.847-4.585.017-7.42 2.944-7.425 7.847.005 4.908 2.845 7.834 7.425 7.846 4.586-.017 7.426-2.944 7.432-7.847zM75.732 13.846h-6.5v19.385h6.5V13.846zM98.236 22.397l-.028.103h-.138v-3.334h-5.26v14.388h5.634v-5.176c0-1.307.362-2.323.956-3.004.593-.686 1.411-1.032 2.311-1.032.379 0 .752.087 1.093.184v-5.581a3.832 3.832 0 00-.835-.114c-1.889-.005-3.272 1.75-3.733 3.566zM155.799 19.317l-2.042 9.045h-.187l-2.471-9.045h-5.831l4.898 14.55-.011.05-.126.47c-.094.383-.538 1.36-2.098 1.35a7.794 7.794 0 01-1.801-.227v3.669c1.329.33 2.85.513 3.997.513 4.151-.01 5.782-2.534 6.732-5.64l4.458-14.73h-5.518v-.005zM139.371 28.227c-.005 1.729-.966 2.507-1.954 2.507-.972 0-1.669-.665-1.669-1.556.011-1.826 1.812-1.924 2.8-1.924.121 0 .231.006.329.006h.5v.967h-.006zm-1.647-9.24c-1.834 0-4.167.293-6.138.855v3.441c2.317-1 4.387-1.053 4.502-1.053 1.296 0 3.25.237 3.283 1.95v.61h-1.158c-1.664 0-3.728.038-5.364.66-1.67.643-2.883 1.831-2.894 4.284.017 2.361 1.389 4.204 4.502 4.22 1.411-.005 3.284-.319 4.761-2.123h.153v1.783h5.541v-9.158c-.006-4.253-3.635-5.457-7.188-5.468zM124.82 13.846l-2.416 13.185h-.182l-1.913-13.185h-6.291l-1.566 12.913h-.214l-2.518-12.913h-6.131l4.309 19.385h7.579l1.566-11.803h.166l1.518 11.803h7.531l4.26-19.385h-5.698z" fill="#000"/></symbol><symbol id="minus" viewBox="0 0 357 357"><path d="M357 204H0v-51h357v51z"/></symbol><symbol id="next-pagination-arrow" viewBox="0 0 24 80"><rect width="24" height="80" rx="2" fill="#F0F0F0"/><path d="M10 35l3.58 5.37L10 45.742" stroke="#8A8A8A" stroke-linecap="round"/></symbol><symbol id="ok-icon" viewBox="0 0 10 9"><path d="M1 3.889L4.077 7 9 1" stroke="#22BC3E" stroke-width="1.5" stroke-linecap="round"/></symbol><symbol id="paper-icon" viewBox="0 0 61 60"><path d="M3 26a5 5 0 015-5h21a5 5 0 015 5v27a5 5 0 01-5 5H8a5 5 0 01-5-5V26z" fill="#F2D986"/><path d="M27 3a5 5 0 00-5 5v10h10a5 5 0 015 5v25h17a5 5 0 005-5V8a5 5 0 00-5-5H27z" fill="#F2D986"/></symbol><symbol id="payment-card-icon" viewBox="0 0 20 20"><path d="M15.833 5H4.167C3.247 5 2.5 5.746 2.5 6.667v7.5c0 .92.746 1.666 1.667 1.666h11.666c.92 0 1.667-.746 1.667-1.666v-7.5c0-.92-.746-1.667-1.667-1.667zM2.5 8.334h14.583M5.833 12.5H7.5" stroke="#8A8A8A" stroke-width="2" stroke-linecap="round" stroke-linejoin="round"/></symbol><symbol id="plus" viewBox="0 0 357 357"><path d="M357 204H204v153h-51V204H0v-51h153V0h51v153h153v51z"/></symbol><symbol id="powerbank-icon" viewBox="0 0 61 60"><path d="M15.5 55h20a5 5 0 005-5v-7.5a2.5 2.5 0 00-5 0V50h-20V22.5a2.5 2.5 0 00-5 0V50a5 5 0 005 5z" fill="#C16D6D"/><path fill-rule="evenodd" clip-rule="evenodd" d="M15.5 10h-5A2.5 2.5 0 008 12.5V20a2.5 2.5 0 002.5 2.5h5A2.5 2.5 0 0018 20v-7.5a2.5 2.5 0 00-2.5-2.5zM23 40V10a5 5 0 015-5h20a5 5 0 015 5v30a5 5 0 01-5 5H28a5 5 0 01-5-5zm13.875-7.775c.346.185.733.28 1.125.275a2.5 2.5 0 002.225-1.375l2.5-5A2.5 2.5 0 0040.5 22.5h-.95l.675-1.375a2.5 2.5 0 00-4.45-2.25l-2.5 5A2.501 2.501 0 0035.5 27.5h.95l-.675 1.375a2.5 2.5 0 001.1 3.35z" fill="#C16D6D"/></symbol><symbol id="powersocket-icon" viewBox="0 0 61 60"><path fill-rule="evenodd" clip-rule="evenodd" d="M17.375 30c0-6.612 4.89-12.082 11.25-12.992v1.742a1.875 1.875 0 003.75 0v-1.742c6.36.91 11.25 6.38 11.25 12.992 0 6.612-4.89 12.082-11.25 12.992V41.25a1.875 1.875 0 00-3.75 0v1.742c-6.36-.91-11.25-6.38-11.25-12.992zM38 30a2.5 2.5 0 11-5 0 2.5 2.5 0 015 0zm-12.5 2.5a2.5 2.5 0 100-5 2.5 2.5 0 000 5z" fill="#AE9292"/><path fill-rule="evenodd" clip-rule="evenodd" d="M9.161 8.661C5.5 12.322 5.5 18.215 5.5 30c0 11.785 0 17.678 3.661 21.339C12.822 55 18.715 55 30.5 55c11.785 0 17.678 0 21.339-3.661C55.5 47.678 55.5 41.785 55.5 30c0-11.785 0-17.678-3.661-21.339C48.178 5 42.285 5 30.5 5 18.715 5 12.822 5 9.161 8.661zM30.5 13.125c-9.32 0-16.875 7.555-16.875 16.875S21.18 46.875 30.5 46.875 47.375 39.32 47.375 30 39.82 13.125 30.5 13.125z" fill="#AE9292"/></symbol><symbol id="prev-pagination-arrow" viewBox="0 0 24 80"><rect width="24" height="80" rx="2" transform="matrix(-1 0 0 1 24 0)" fill="#F0F0F0"/><path d="M14 35l-3.58 5.37L14 45.742" stroke="#8A8A8A" stroke-linecap="round"/></symbol><symbol id="printer-icon" viewBox="0 0 61 60"><g clip-path="url(#clip0_82_9520)"><path d="M19.25 3.75A3.757 3.757 0 0015.5 7.5v3.75h30V7.5a3.757 3.757 0 00-3.75-3.75h-22.5zM8 15C3.84 15 .5 18.34.5 22.5v15C.5 41.66 3.84 45 8 45v-1.25c0 4.087 3.413 7.5 7.5 7.5h30c4.087 0 7.5-3.413 7.5-7.5V45c4.16 0 7.5-3.34 7.5-7.5v-15c0-4.16-3.34-7.5-7.5-7.5H8zm7.5 22.5h30v4h-30v-4z" fill="#E58673"/></g></symbol><symbol id="quality-icon" viewBox="0 0 20 20"><path d="M4.825 11.308L2.5 14.633l2.525.75L6.592 17.5l2.4-3.425M15.175 11.308l2.325 3.325-2.524.75-1.567 2.117-2.4-3.425" stroke="#8A8A8A" stroke-width="2" stroke-linecap="round" stroke-linejoin="round"/><path d="M10 14.167A5.833 5.833 0 1010 2.5a5.833 5.833 0 000 11.667z" stroke="#8A8A8A" stroke-width="2" stroke-linecap="round" stroke-linejoin="round"/></symbol><symbol id="reload-icon" viewBox="0 0 24 25"><path class="reload" d="M4 12.5a1 1 0 11-2 0 9.983 9.983 0 0116.242-7.794V3.258a1 1 0 012 0v4a1 1 0 01-1 1h-4a1 1 0 110-2h1.743A7.986 7.986 0 004 12.5zm17-1a1 1 0 00-1 1 7.986 7.986 0 01-12.985 6.242h1.742a1 1 0 100-2h-4a1 1 0 00-1 1v4a1 1 0 102 0v-1.448A9.984 9.984 0 0022 12.5a1 1 0 00-1-1z" fill="var(--secondary-color)"/></symbol><symbol id="right-arrow" viewBox="0 0 12 16"><path d="M1.75 1l8 7-8 7" stroke="#8A8A8A" stroke-width="2" stroke-linecap="round"/></symbol><symbol id="search-icon" viewBox="0 0 23 22"><path fill-rule="evenodd" clip-rule="evenodd" d="M11.22 14.936c-2.556 0-4.628-2.036-4.628-4.552 0-2.515 2.072-4.555 4.628-4.555 2.555 0 4.628 2.04 4.628 4.555 0 2.516-2.073 4.552-4.629 4.552zm7.407 2.357l-3.356-3.304a5.303 5.303 0 001.418-3.605C16.69 7.41 14.24 5 11.22 5 8.2 5 5.75 7.41 5.75 10.384c0 2.971 2.449 5.38 5.47 5.38a5.494 5.494 0 003.442-1.202l3.37 3.316c.164.163.43.163.595 0a.409.409 0 000-.585z" fill="#fff" stroke="#fff" stroke-width=".5"/></symbol><symbol id="small-white-arrow-icon" viewBox="0 0 5 8"><path d="M.495 7.208L3.703 4 .494.793" stroke="#fff" stroke-width="1.166" stroke-linejoin="round"/></symbol><symbol id="spare-icon" viewBox="0 0 51 51"><path d="M49.05 49.55a5 5 0 01-7.05 0L24.05 31.6A16.2 16.2 0 01.5 18.625 17.675 17.675 0 01.75 14 2.5 2.5 0 015 12.85L13 21l6.225-1.25L20.5 13.5l-8.15-8a2.5 2.5 0 011.15-4.2 17.675 17.675 0 014.625-.3A16.2 16.2 0 0131.1 24.5l17.95 17.95a5 5 0 010 7.1z" fill="#89B1F2"/></symbol><symbol id="status-ok-icon" viewBox="0 0 15 15"><path d="M4.222 5.807l1.356 1.357L7.84 4.903" stroke="#4FD284" stroke-width="1.206" stroke-linecap="round" stroke-linejoin="round"/><path d="M9.649 1.81H2.413a.603.603 0 00-.603.602v7.236c0 .334.27.604.603.604h7.236c.333 0 .603-.27.603-.604V2.412a.603.603 0 00-.603-.603z" stroke="#4FD284" stroke-width="1.206" stroke-linecap="round" stroke-linejoin="round"/><path d="M4.222 12.664h6.03a2.412 2.412 0 002.412-2.412V3.014" stroke="#4FD284" stroke-width="1.206" stroke-linecap="round" stroke-linejoin="round"/></symbol><symbol id="string-icon" viewBox="0 0 20 20"><path d="M17.32 4.5H3.68c-.65 0-1.18.53-1.18 1.18V8.2c0 .65.53 1.18 1.18 1.18h13.64c.65 0 1.18-.53 1.18-1.18V5.68c0-.65-.53-1.18-1.18-1.18zm-.07 3.62H3.75V5.75h13.5v2.37zm.07 2.5H3.68c-.65 0-1.18.53-1.18 1.18v2.52c0 .65.53 1.18 1.18 1.18h13.64c.65 0 1.18-.53 1.18-1.18V11.8c0-.65-.53-1.18-1.18-1.18zm-.07 3.63H3.75v-2.38h13.5v2.38z" fill="#8A8A8A"/></symbol><symbol id="supplies-icon" viewBox="0 0 28 28"><path fill="#1E1E1E" d="M0 0h28v28H0z"/><g clip-path="url(#clip0_0_1)"><path fill="#fff" d="M-40-140h1440V884H-40z"/><rect width="14" height="90" rx="2" transform="matrix(-1 0 0 1 20.426 -29)" fill="#F0F0F0"/><path d="M15.426 10l-4 6 4 6" stroke="#8A8A8A" stroke-linecap="round"/><path opacity=".4" fill="#000" d="M-40-140h1440v1221H-40z"/><g><path fill="#fff" d="M-40-140h378V884H-40z"/><path d="M9.4 6.15a3.61 3.61 0 01.717 2.183c0 .767-.25 1.534-.717 2.184a3.782 3.782 0 01-1.867 1.3c-.366.1-.75.183-1.133.183H1.333V0h4.784c.35 0 .7.05 1.033.167.7.2 1.317.633 1.717 1.216.45.567.683 1.3.7 2.034.016.7-.25 1.433-.7 2-.017.033-.05.066-.067.083.217.2.417.417.6.65zM6.1 2.117H3.633v2.55h2.6a1.46 1.46 0 00.75-.467c.184-.217.3-.5.284-.783-.017-.317-.117-.634-.334-.867-.166-.217-.566-.433-.833-.433zm1.733 6.216c.017-.4-.15-.816-.433-1.116-.333-.334-.65-.417-1.033-.417H3.633v3.067h2.734c.366 0 .7-.167.966-.4.334-.284.484-.7.5-1.134zM20.248 3v9h-2.3V6.583l-4 5.417h-2V3h2.3v5.233l4-5.233h2zm9.757 0v2h-2.95v7h-2.267V5h-2.95V3h8.167zm9.284 1.183c.7.884 1.05 2.067 1.05 3.317 0 1.233-.284 2.383-1.05 3.317-.734.916-1.917 1.433-3.1 1.433-.867 0-1.667-.2-2.317-.6V16h-2.284V3h2v.567a4.146 4.146 0 012.484-.817c1.25 0 2.45.483 3.216 1.433zm-1.8 5.25c.316-.466.45-1.166.45-1.933 0-.767-.167-1.467-.484-1.933-.383-.584-.966-.8-1.716-.8-.617 0-1.15.2-1.517.633-.434.5-.633 1.283-.633 2.1 0 .817.2 1.617.633 2.1.4.433.95.633 1.6.633.633 0 1.283-.216 1.666-.8zM44 5.65l-2.067-.983c.05-.067.117-.184.184-.267.816-1.15 2.05-1.633 3.533-1.633 1.65 0 2.983.55 3.717 1.783.35.583.483 1.25.483 1.8V12h-1.983v-1.533c-.167.483-.717.983-1.117 1.216-.633.384-1.417.55-2.1.55-.883 0-1.8-.433-2.283-1-.467-.65-.7-1.1-.7-1.883 0-.967.6-1.917 1.45-2.417 1-.533 1.7-.55 2.983-.75l1.45-.2c-.083-.35-.333-.65-.667-.833-.366-.217-.816-.3-1.283-.283-.583 0-1.067.133-1.417.55-.066.066-.133.15-.183.233zm3.6 2.15l-1.667.317c-.966.183-1.983.366-2.016 1.083-.034.533.45 1 1.183.967.95-.034 2.1-.5 2.383-1.584.1-.366.117-.7.117-.783zM59.427 3v2h-2.95v7H54.21V5h-2.95V3h8.167zm7.55 0h2.267v9h-2.267V8.483h-3.7V12H61.01V3h2.267v3.217h3.7V3zM71.74-.25h2.266v2H71.74v-2zm0 3.25h2.266v9H71.74V3zm15.965 0h2v9h-2.3V7.85L85.372 11h-1.2l-2.034-3.15V12h-2.3V3h2l2.934 4.533L87.705 3zm6.17 2.65l-2.067-.983c.05-.067.117-.184.184-.267.816-1.15 2.05-1.633 3.533-1.633 1.65 0 2.983.55 3.717 1.783.35.583.483 1.25.483 1.8V12h-1.983v-1.533c-.167.483-.717.983-1.117 1.216-.633.384-1.417.55-2.1.55-.883 0-1.8-.433-2.283-1-.467-.65-.7-1.1-.7-1.883 0-.967.6-1.917 1.45-2.417 1-.533 1.7-.55 2.983-.75l1.45-.2c-.083-.35-.333-.65-.667-.833-.366-.217-.816-.3-1.283-.283-.583 0-1.067.133-1.417.55-.066.066-.133.15-.183.233zm3.6 2.15l-1.667.317c-.966.183-1.983.366-2.016 1.083-.034.533.45 1 1.183.967.95-.034 2.1-.5 2.383-1.584.1-.366.117-.7.117-.783zM109.302 3v2h-2.95v7h-2.267V5h-2.95V3h8.167zm3.533 5.117c.067.466.2.9.467 1.25.367.5.983.766 1.633.766.667 0 1.267-.266 1.65-.766.067-.1.1-.2.167-.284l2.25.984c-.15.25-.333.5-.533.733-.9 1-2.2 1.517-3.534 1.45-1.333-.067-2.616-.5-3.45-1.5a4.845 4.845 0 01-1.1-3.25c.034-1.25.35-2.35 1.1-3.25.834-.983 2.117-1.5 3.45-1.5 1.334 0 2.617.5 3.45 1.5.75.9 1.1 2.05 1.1 3.25 0 .2-.016.417-.033.617h-6.617zm2.1-3.25c-.65 0-1.266.25-1.633.766a2.338 2.338 0 00-.367.734h4a2.699 2.699 0 00-.35-.734c-.383-.516-.983-.766-1.65-.766zm14.088-.684c.7.884 1.05 2.067 1.05 3.317 0 1.233-.283 2.383-1.05 3.317-.733.916-1.917 1.433-3.1 1.433-.867 0-1.667-.2-2.317-.6V16h-2.283V3h2v.567a4.145 4.145 0 012.483-.817c1.25 0 2.45.483 3.217 1.433zm-1.8 5.25c.317-.466.45-1.166.45-1.933 0-.767-.167-1.467-.483-1.933-.384-.584-.967-.8-1.717-.8-.617 0-1.15.2-1.517.633-.433.5-.633 1.283-.633 2.1 0 .817.2 1.617.633 2.1.4.433.95.633 1.6.633.634 0 1.284-.216 1.667-.8zm4.845-9.683h2.266v2h-2.266v-2zm0 3.25h2.266v9h-2.266V3zm6.604 2.65l-2.067-.983c.05-.067.117-.184.184-.267.816-1.15 2.05-1.633 3.533-1.633 1.65 0 2.983.55 3.717 1.783.35.583.483 1.25.483 1.8V12h-1.983v-1.533c-.167.483-.717.983-1.117 1.216-.633.384-1.417.55-2.1.55-.883 0-1.8-.433-2.283-1-.467-.65-.7-1.1-.7-1.883 0-.967.6-1.917 1.45-2.417 1-.533 1.7-.55 2.983-.75l1.45-.2c-.083-.35-.333-.65-.667-.833-.366-.217-.816-.3-1.283-.283-.583 0-1.067.133-1.417.55-.066.066-.133.15-.183.233zm3.6 2.15l-1.667.317c-.966.183-1.983.366-2.016 1.083-.034.533.45 1 1.183.967.95-.034 2.1-.5 2.383-1.584.1-.366.117-.7.117-.783zm5.677-4.8h6.683v9h-2.133V5h-2.7l-.533 4.067c-.3 2.283-1.3 3.3-3.417 2.933v-2c1.167 0 1.267-.517 1.383-1.433L147.949 3zm17.315 0v9h-2.3V6.583l-4 5.417h-2V3h2.3v5.233l4-5.233h2zm13.502 0v6.867h.75v3.2h-2.134V12h-5.15v1.067h-2.133v-3.2c.933 0 1.517-1.017 1.767-3.084L172.299 3h6.467zm-2.134 6.867V5h-2.483l-.233 2.033c-.134 1.217-.384 2.267-.834 2.834h3.55zM182.777 3h6.683v9h-2.133V5h-2.7l-.533 4.067c-.3 2.283-1.3 3.3-3.417 2.933v-2c1.167 0 1.267-.517 1.383-1.433L182.777 3zm11.648 0h4.75v9h-2.3V9.133h-1.633L193.858 12h-2.566l1.566-3.217a2.544 2.544 0 01-.666-.466c-.6-.567-.9-1.434-.9-2.267 0-.817.3-1.667.9-2.233.6-.584 1.45-.817 2.233-.817zm2.45 3.983V5.117h-2.367a.953.953 0 00-.65.3.913.913 0 00-.266.633c0 .233.1.45.25.617.166.2.4.316.666.316h2.367zM9.4 19v9H7.133v-6.733h-3.7V28H1.167v-9H9.4zm10.03 1.183c.7.884 1.05 2.067 1.05 3.317 0 1.233-.284 2.383-1.05 3.317-.734.916-1.918 1.433-3.1 1.433-.867 0-1.667-.2-2.317-.6V32h-2.284V19h2v.567a4.145 4.145 0 012.483-.817c1.25 0 2.45.483 3.217 1.433zm-1.8 5.25c.316-.466.45-1.166.45-1.933 0-.767-.167-1.467-.484-1.933-.384-.584-.967-.8-1.717-.8-.617 0-1.15.2-1.516.633-.434.5-.634 1.283-.634 2.1 0 .817.2 1.617.634 2.1.4.433.95.633 1.6.633.633 0 1.283-.216 1.666-.8zM30.606 19v9h-2.3v-5.417l-4 5.417h-2v-9h2.3v5.233l4-5.233h2zm8.308 0h2.266v9h-2.266v-3.517h-3.7V28h-2.267v-9h2.267v3.217h3.7V19zm12.012 0v2h-2.95v7H45.71v-7h-2.95v-2h8.167zm3.533 5.117c.067.466.2.9.467 1.25.367.5.983.766 1.633.766.667 0 1.267-.266 1.65-.766.067-.1.1-.2.167-.284l2.25.984c-.15.25-.333.5-.533.733-.9 1-2.2 1.517-3.534 1.45-1.333-.067-2.616-.5-3.45-1.5a4.84 4.84 0 01-1.1-3.25c.034-1.25.35-2.35 1.1-3.25.834-.983 2.117-1.5 3.45-1.5 1.334 0 2.617.5 3.45 1.5.75.9 1.1 2.05 1.1 3.25 0 .2-.016.417-.033.617H54.46zm2.1-3.25c-.65 0-1.266.25-1.633.766a2.332 2.332 0 00-.367.734h4a2.708 2.708 0 00-.35-.734c-.383-.516-.983-.766-1.65-.766zm14.088-.684c.7.884 1.05 2.067 1.05 3.317 0 1.233-.283 2.383-1.05 3.317-.733.916-1.917 1.433-3.1 1.433-.867 0-1.667-.2-2.317-.6V32h-2.283V19h2v.567a4.146 4.146 0 012.483-.817c1.25 0 2.45.483 3.217 1.433zm-1.8 5.25c.317-.466.45-1.166.45-1.933 0-.767-.167-1.467-.483-1.933-.384-.584-.967-.8-1.717-.8-.617 0-1.15.2-1.517.633-.433.5-.633 1.283-.633 2.1 0 .817.2 1.617.633 2.1.4.433.95.633 1.6.633.634 0 1.284-.216 1.667-.8zm4.845-9.683h2.266v2h-2.266v-2zm0 3.25h2.266v9h-2.266v-9zm4.77.033L82.98 19c.783 0 1.533.183 2.084.617.666.516 1.033 1.216 1.033 2.083 0 .417-.084.817-.267 1.183a3.132 3.132 0 01-.266.384c.3.233.55.533.716.883.183.35.284.767.284 1.167 0 .8-.4 1.6-1.034 2.1-.416.316-1.117.583-1.6.583h-5.467v-8.967zm2.3 1.734v1.883h2.217c.317 0 .533-.1.7-.367.117-.2.15-.4.133-.583-.016-.183-.016-.367-.133-.567-.183-.283-.367-.366-.7-.366h-2.217zm0 3.616v1.884h2.7a.78.78 0 00.684-.367c.116-.2.133-.4.133-.583a1.08 1.08 0 00-.133-.567c-.167-.25-.35-.367-.684-.367h-2.7z" fill="#000"/><path fill="#E9FBE5" d="M-40-14h377v56H-40z"/><g fill="#A28FCE"><path d="M22.165 5.884c-.67-.05-1.424-.05-2.194-.05H8.027c-.77 0-1.524 0-2.195.05v-.05a3.5 3.5 0 013.5-3.5h9.333a3.5 3.5 0 013.5 3.5v.05z"/><path fill-rule="evenodd" clip-rule="evenodd" d="M12.757 14h2.486c1.035 0 1.926 0 2.64.096.764.103 1.497.335 2.092.93.595.594.826 1.327.93 2.092.095.713.095 1.604.095 2.639v.153c0 1.034 0 1.925-.096 2.64-.103.764-.334 1.497-.93 2.091-.594.595-1.327.827-2.092.93-.713.096-1.604.096-2.639.096h-2.486c-1.035 0-1.926 0-2.64-.096-.764-.103-1.497-.335-2.092-.93-.594-.594-.826-1.327-.93-2.092C7 21.836 7 20.944 7 19.91v-.077-.076c0-1.035 0-1.926.096-2.64.103-.764.335-1.497.93-2.092.594-.595 1.327-.826 2.092-.93C10.83 14 11.722 14 12.757 14z"/><path d="M8.089 7c-1.035 0-1.926 0-2.64.096-.764.103-1.497.335-2.092.93-.594.594-.826 1.327-.93 2.092-.095.713-.095 1.604-.095 2.639v2.486c0 1.035 0 1.926.096 2.64.103.764.335 1.497.93 2.092.662.662 1.572.894 2.478.97a78.367 78.367 0 01-.004-.973c0-1.002-.028-2.015.106-3.01.12-.893.413-1.914 1.26-2.762.849-.848 1.87-1.14 2.763-1.26.792-.107 1.748-.107 2.733-.107h2.61c.984 0 1.94 0 2.733.107.893.12 1.914.412 2.762 1.26.847.848 1.14 1.869 1.26 2.762.134.995.106 2.008.106 3.01 0 .33 0 .656-.003.974.905-.077 1.816-.309 2.478-.971.595-.595.827-1.328.93-2.093.096-.713.096-1.604.095-2.639v-2.486c0-1.035 0-1.926-.095-2.64-.103-.764-.335-1.497-.93-2.092-.594-.594-1.328-.826-2.092-.93C21.834 7 20.943 7 19.908 7H8.089z"/></g></g></g></symbol><symbol id="toggler-dark-icon" viewBox="0 0 10 11"><path d="M1.384 5.368a3.75 3.75 0 007.232 1.396 3.75 3.75 0 01-4.88-4.876 3.751 3.751 0 00-2.352 3.48z" stroke="#22BC3E" stroke-linecap="round" stroke-linejoin="round"/></symbol><symbol id="toggler-light-icon" viewBox="0 0 10 11"><path d="M3.036 6.195a2.083 2.083 0 111.27 1.27M5 9.667v-.833M5 2.167v-.833M1.666 5.5H.833M9.166 5.5h-.833M8.241 8.74l-.926-.846M1.76 8.74l.926-.846M2.686 3.185L1.76 2.26M8.241 2.26l-.926.926" stroke="#22BC3E" stroke-width="1.091" stroke-linecap="round"/></symbol><symbol id="toner-icon" viewBox="0 0 65 60"><path d="M43.333 22.5l11.839 4.372c1.029.378 1.703 1.3 1.703 2.32V52.5c0 1.38-1.213 2.5-2.708 2.5H10.833c-1.495 0-2.708-1.12-2.708-2.5V29.192c0-1.022.674-1.942 1.704-2.32L21.667 22.5h21.666zM54.167 35h-32.5v12.5h32.5V35zM43.333 7.5c1.495 0 2.709 1.12 2.709 2.5v10H18.958V10c0-1.38 1.214-2.5 2.709-2.5h21.666z" fill="#A28FCE"/></symbol><symbol id="YouTube" viewBox="0 0 38 26"><path d="M30.801 25H6.799C3.587 25 1 22.16 1 18.666V7.334C1 3.826 3.6 1 6.799 1h24.002C34.013 1 36.6 3.84 36.6 7.334v11.332C36.613 22.174 34.013 25 30.801 25z" stroke="#22BC3E" stroke-width="2"/><path d="M25.097 12.822L15 7v11.645l10.097-5.822z" stroke="#22BC3E" stroke-width="2"/></symbol></svg>