<svg width="10" height="11" viewBox="0 0 10 11" fill="none" xmlns="http://www.w3.org/2000/svg">
<path d="M3.03554 6.19462C2.95877 5.97741 2.91699 5.74366 2.91699 5.50016C2.91699 4.34958 3.84973 3.41683 5.00033 3.41683C6.15091 3.41683 7.08366 4.34958 7.08366 5.50016C7.08366 6.65075 6.15091 7.5835 5.00033 7.5835C4.75683 7.5835 4.52308 7.54172 4.30587 7.46495" stroke="#22BC3E" stroke-width="1.09091" stroke-linecap="round"/>
<path d="M5 9.66699V8.83366" stroke="#22BC3E" stroke-width="1.09091" stroke-linecap="round"/>
<path d="M5 2.16699V1.33366" stroke="#22BC3E" stroke-width="1.09091" stroke-linecap="round"/>
<path d="M1.66634 5.5H0.833008" stroke="#22BC3E" stroke-width="1.09091" stroke-linecap="round"/>
<path d="M9.16634 5.5H8.33301" stroke="#22BC3E" stroke-width="1.09091" stroke-linecap="round"/>
<path d="M8.24126 8.74072L7.31543 7.89423" stroke="#22BC3E" stroke-width="1.09091" stroke-linecap="round"/>
<path d="M1.75977 8.74072L2.6856 7.89423" stroke="#22BC3E" stroke-width="1.09091" stroke-linecap="round"/>
<path d="M2.68569 3.18506L1.75977 2.25914" stroke="#22BC3E" stroke-width="1.09091" stroke-linecap="round"/>
<path d="M8.24126 2.25963L7.31543 3.18555" stroke="#22BC3E" stroke-width="1.09091" stroke-linecap="round"/>
</svg>
