<svg width="65" height="60" viewBox="0 0 65 60" fill="none" xmlns="http://www.w3.org/2000/svg">

<path d="M43.3333 22.5L55.1715 26.8725C56.2006 27.25 56.875 28.1725 56.875 29.1925V52.5C56.875 53.88 55.6617 55 54.1667 55H10.8333C9.33833 55 8.125 53.88 8.125 52.5V29.1925C8.125 28.17 8.79937 27.25 9.82854 26.8725L21.6667 22.5H43.3333ZM54.1667 35H21.6667V47.5H54.1667V35ZM43.3333 7.5C44.8283 7.5 46.0417 8.62 46.0417 10V20H18.9583V10C18.9583 8.62 20.1717 7.5 21.6667 7.5H43.3333Z" fill="#A28FCE"/>
</svg>
